<mxfile host="app.diagrams.net" modified="2022-05-24T10:00:38.462Z" agent="5.0 (Macintosh; Intel Mac OS X 10_15_7) AppleWebKit/537.36 (KHTML, like Gecko) Chrome/101.0.4951.54 Safari/537.36" etag="xXanJ_7I6ai3awGZ52af" version="18.0.7" type="github">
  <diagram id="hhoEee4OtY3em96QOLKo" name="Page-1">
    <mxGraphModel dx="1376" dy="769" grid="0" gridSize="10" guides="1" tooltips="1" connect="1" arrows="1" fold="1" page="1" pageScale="1" pageWidth="827" pageHeight="1169" math="0" shadow="0">
      <root>
        <mxCell id="0" />
        <mxCell id="1" parent="0" />
        <mxCell id="KYrOxUyAsJtOEbto99pf-11" value="" style="rounded=1;whiteSpace=wrap;html=1;sketch=0;fontFamily=Verdana;fontSize=15;fontColor=#333333;strokeColor=#666666;fillColor=#f5f5f5;dashed=1;align=left;" parent="1" vertex="1">
          <mxGeometry x="955.5" y="1399" width="350.5" height="360" as="geometry" />
        </mxCell>
        <mxCell id="6svz-Yu5DE2-0Qyf26-9-62" value="&amp;nbsp;SessionCatalog" style="rounded=1;whiteSpace=wrap;html=1;shadow=0;labelBackgroundColor=none;labelBorderColor=none;sketch=0;fontSize=12;fontColor=#333333;strokeColor=#666666;strokeWidth=1;fillColor=#f5f5f5;verticalAlign=top;align=left;" parent="1" vertex="1">
          <mxGeometry x="925" y="959" width="442" height="77" as="geometry" />
        </mxCell>
        <mxCell id="6svz-Yu5DE2-0Qyf26-9-4" value="&lt;pre style=&quot;font-family: &amp;#34;jetbrains mono&amp;#34; , monospace ; font-size: 16px&quot;&gt;  batches:Seq[Batch]&lt;/pre&gt;&lt;pre style=&quot;font-family: &amp;#34;jetbrains mono&amp;#34; , monospace ; font-size: 16px&quot;&gt;  batches.foreach{&lt;/pre&gt;&lt;pre style=&quot;font-family: &amp;#34;jetbrains mono&amp;#34; , monospace ; font-size: 16px&quot;&gt;&lt;br&gt;&lt;/pre&gt;&lt;pre style=&quot;font-family: &amp;#34;jetbrains mono&amp;#34; , monospace ; font-size: 16px&quot;&gt;&lt;br&gt;&lt;/pre&gt;&lt;pre style=&quot;font-family: &amp;#34;jetbrains mono&amp;#34; , monospace ; font-size: 16px&quot;&gt;&lt;br&gt;&lt;/pre&gt;&lt;pre style=&quot;font-family: &amp;#34;jetbrains mono&amp;#34; , monospace ; font-size: 16px&quot;&gt;&lt;br&gt;&lt;/pre&gt;&lt;pre style=&quot;font-family: &amp;#34;jetbrains mono&amp;#34; , monospace ; font-size: 16px&quot;&gt;&lt;br&gt;&lt;/pre&gt;&lt;pre style=&quot;font-family: &amp;#34;jetbrains mono&amp;#34; , monospace ; font-size: 16px&quot;&gt;&lt;br&gt;&lt;/pre&gt;&lt;pre style=&quot;font-family: &amp;#34;jetbrains mono&amp;#34; , monospace ; font-size: 16px&quot;&gt;&lt;br&gt;&lt;/pre&gt;&lt;pre style=&quot;font-family: &amp;#34;jetbrains mono&amp;#34; , monospace ; font-size: 16px&quot;&gt;&lt;br&gt;&lt;/pre&gt;&lt;pre style=&quot;font-family: &amp;#34;jetbrains mono&amp;#34; , monospace ; font-size: 16px&quot;&gt;&lt;br&gt;&lt;/pre&gt;&lt;pre style=&quot;font-family: &amp;#34;jetbrains mono&amp;#34; , monospace ; font-size: 16px&quot;&gt;&lt;span style=&quot;white-space: normal&quot;&gt;&amp;nbsp; &amp;nbsp; &amp;nbsp; &amp;nbsp;}&lt;/span&gt;&lt;br&gt;&lt;/pre&gt;" style="rounded=1;whiteSpace=wrap;html=1;labelBackgroundColor=none;fontSize=16;sketch=0;shadow=0;align=left;verticalAlign=top;fillColor=#f5f5f5;strokeColor=#666666;fontColor=#333333;" parent="1" vertex="1">
          <mxGeometry x="181" y="2038" width="550.5" height="441" as="geometry" />
        </mxCell>
        <mxCell id="6svz-Yu5DE2-0Qyf26-9-5" value="&amp;nbsp; &amp;nbsp; &amp;nbsp; Batch.rules" style="rounded=1;whiteSpace=wrap;html=1;shadow=0;labelBackgroundColor=none;labelBorderColor=none;sketch=0;fontSize=16;align=left;verticalAlign=top;dashed=1;strokeColor=#36393d;fillColor=#f9f7ed;" parent="1" vertex="1">
          <mxGeometry x="235.75" y="2128" width="441" height="313" as="geometry" />
        </mxCell>
        <mxCell id="6svz-Yu5DE2-0Qyf26-9-31" value="" style="rounded=1;whiteSpace=wrap;html=1;shadow=0;dashed=1;labelBackgroundColor=none;labelBorderColor=none;sketch=0;fontSize=16;fontColor=#B5739D;strokeColor=#9999FF;strokeWidth=1;" parent="1" vertex="1">
          <mxGeometry x="476.75" y="2156" width="163" height="266" as="geometry" />
        </mxCell>
        <mxCell id="6svz-Yu5DE2-0Qyf26-9-29" value="" style="rounded=1;whiteSpace=wrap;html=1;shadow=0;dashed=1;labelBackgroundColor=none;labelBorderColor=none;sketch=0;fontSize=16;fontColor=#B5739D;strokeColor=#9999FF;strokeWidth=1;" parent="1" vertex="1">
          <mxGeometry x="293.75" y="2159" width="153" height="266" as="geometry" />
        </mxCell>
        <mxCell id="6svz-Yu5DE2-0Qyf26-9-2" style="edgeStyle=orthogonalEdgeStyle;rounded=0;orthogonalLoop=1;jettySize=auto;html=1;entryX=1;entryY=0.5;entryDx=0;entryDy=0;fontSize=16;fontColor=#000000;" parent="1" source="0N4g02ynrCQmDdUy3KtQ-81" target="6svz-Yu5DE2-0Qyf26-9-1" edge="1">
          <mxGeometry relative="1" as="geometry" />
        </mxCell>
        <mxCell id="0N4g02ynrCQmDdUy3KtQ-81" value="Analyzer" style="rounded=1;whiteSpace=wrap;html=1;sketch=1;shadow=0;glass=0;fillColor=#f5f5f5;strokeColor=#666666;overflow=visible;noLabel=0;direction=north;connectable=1;allowArrows=1;portConstraintRotation=0;snapToPoint=0;perimeter=rectanglePerimeter;fixDash=0;autosize=0;container=0;dropTarget=0;collapsible=0;recursiveResize=1;expand=1;treeFolding=0;disableMultiStroke=0;disableMultiStrokeFill=0;dashOffset=1;fillStyle=auto;fontSize=16;fontColor=#333333;verticalAlign=top;gradientDirection=south;" parent="1" vertex="1">
          <mxGeometry x="249" y="1657" width="532" height="292" as="geometry" />
        </mxCell>
        <mxCell id="0N4g02ynrCQmDdUy3KtQ-48" value="RuleExecutor[TreeType &amp;lt;: TreeNode[_]]&amp;nbsp;" style="rounded=1;whiteSpace=wrap;html=1;sketch=1;shadow=0;glass=0;fillColor=#f5f5f5;strokeColor=#666666;overflow=visible;noLabel=0;direction=north;connectable=1;allowArrows=1;portConstraintRotation=0;snapToPoint=0;perimeter=rectanglePerimeter;fixDash=0;autosize=0;container=0;dropTarget=0;collapsible=0;recursiveResize=1;expand=1;treeFolding=0;disableMultiStroke=0;disableMultiStrokeFill=0;dashOffset=1;fillStyle=auto;fontSize=15;fontColor=#333333;verticalAlign=top;gradientColor=#ffffff;gradientDirection=south;" parent="1" vertex="1">
          <mxGeometry x="195.5" y="1247" width="485" height="305" as="geometry" />
        </mxCell>
        <mxCell id="0N4g02ynrCQmDdUy3KtQ-31" value="" style="edgeStyle=orthogonalEdgeStyle;rounded=0;orthogonalLoop=1;jettySize=auto;html=1;fontSize=14;entryX=0.525;entryY=1.033;entryDx=0;entryDy=0;entryPerimeter=0;" parent="1" source="0N4g02ynrCQmDdUy3KtQ-2" target="0N4g02ynrCQmDdUy3KtQ-30" edge="1">
          <mxGeometry relative="1" as="geometry" />
        </mxCell>
        <mxCell id="0N4g02ynrCQmDdUy3KtQ-33" value="" style="edgeStyle=orthogonalEdgeStyle;rounded=0;orthogonalLoop=1;jettySize=auto;html=1;fontSize=14;" parent="1" source="0N4g02ynrCQmDdUy3KtQ-2" target="0N4g02ynrCQmDdUy3KtQ-32" edge="1">
          <mxGeometry relative="1" as="geometry" />
        </mxCell>
        <mxCell id="0N4g02ynrCQmDdUy3KtQ-39" style="edgeStyle=orthogonalEdgeStyle;rounded=0;orthogonalLoop=1;jettySize=auto;html=1;entryX=0;entryY=0.5;entryDx=0;entryDy=0;fontFamily=Helvetica;fontSize=12;fontColor=default;" parent="1" source="0N4g02ynrCQmDdUy3KtQ-2" target="0N4g02ynrCQmDdUy3KtQ-38" edge="1">
          <mxGeometry relative="1" as="geometry" />
        </mxCell>
        <mxCell id="0N4g02ynrCQmDdUy3KtQ-40" style="edgeStyle=orthogonalEdgeStyle;rounded=0;orthogonalLoop=1;jettySize=auto;html=1;entryX=1;entryY=0.5;entryDx=0;entryDy=0;fontFamily=Helvetica;fontSize=12;fontColor=default;" parent="1" source="0N4g02ynrCQmDdUy3KtQ-2" target="0N4g02ynrCQmDdUy3KtQ-36" edge="1">
          <mxGeometry relative="1" as="geometry" />
        </mxCell>
        <mxCell id="0N4g02ynrCQmDdUy3KtQ-42" style="edgeStyle=orthogonalEdgeStyle;rounded=0;orthogonalLoop=1;jettySize=auto;html=1;entryX=1;entryY=0.5;entryDx=0;entryDy=0;fontFamily=Helvetica;fontSize=12;fontColor=default;" parent="1" source="0N4g02ynrCQmDdUy3KtQ-2" target="0N4g02ynrCQmDdUy3KtQ-34" edge="1">
          <mxGeometry relative="1" as="geometry" />
        </mxCell>
        <mxCell id="0N4g02ynrCQmDdUy3KtQ-43" style="edgeStyle=orthogonalEdgeStyle;rounded=0;orthogonalLoop=1;jettySize=auto;html=1;entryX=0;entryY=0.5;entryDx=0;entryDy=0;fontFamily=Helvetica;fontSize=12;fontColor=default;" parent="1" source="0N4g02ynrCQmDdUy3KtQ-2" target="0N4g02ynrCQmDdUy3KtQ-41" edge="1">
          <mxGeometry relative="1" as="geometry" />
        </mxCell>
        <mxCell id="0N4g02ynrCQmDdUy3KtQ-2" value="SessionCatalog" style="rounded=1;whiteSpace=wrap;html=1;sketch=1;shadow=0;glass=0;fillColor=#b1ddf0;strokeColor=#10739e;overflow=visible;noLabel=0;direction=north;connectable=1;allowArrows=1;portConstraintRotation=0;snapToPoint=0;perimeter=rectanglePerimeter;fixDash=0;autosize=0;container=0;dropTarget=0;collapsible=0;recursiveResize=1;expand=1;treeFolding=0;disableMultiStroke=0;disableMultiStrokeFill=0;dashOffset=1;fillStyle=solid;fontSize=14;" parent="1" vertex="1">
          <mxGeometry x="370" y="944" width="120" height="48" as="geometry" />
        </mxCell>
        <mxCell id="0N4g02ynrCQmDdUy3KtQ-46" style="edgeStyle=orthogonalEdgeStyle;rounded=0;orthogonalLoop=1;jettySize=auto;html=1;entryX=1;entryY=0.5;entryDx=0;entryDy=0;fontFamily=Helvetica;fontSize=12;fontColor=default;exitX=0.25;exitY=0;exitDx=0;exitDy=0;" parent="1" source="0N4g02ynrCQmDdUy3KtQ-22" target="0N4g02ynrCQmDdUy3KtQ-44" edge="1">
          <mxGeometry relative="1" as="geometry" />
        </mxCell>
        <mxCell id="0N4g02ynrCQmDdUy3KtQ-47" style="edgeStyle=orthogonalEdgeStyle;rounded=0;orthogonalLoop=1;jettySize=auto;html=1;entryX=0;entryY=0.5;entryDx=0;entryDy=0;fontFamily=Helvetica;fontSize=12;fontColor=default;exitX=0.75;exitY=0;exitDx=0;exitDy=0;" parent="1" source="0N4g02ynrCQmDdUy3KtQ-22" target="0N4g02ynrCQmDdUy3KtQ-45" edge="1">
          <mxGeometry relative="1" as="geometry" />
        </mxCell>
        <object label="ExternalCatalog" id="0N4g02ynrCQmDdUy3KtQ-22">
          <mxCell style="swimlane;fontStyle=0;childLayout=stackLayout;horizontal=1;startSize=26;horizontalStack=0;resizeParent=1;resizeParentMax=0;resizeLast=0;collapsible=1;marginBottom=0;align=center;fontSize=14;shadow=0;glass=0;sketch=1;disableMultiStroke=0;disableMultiStrokeFill=0;fillStyle=solid;fillColor=#bac8d3;strokeColor=#23445d;" parent="1" vertex="1">
            <mxGeometry x="346" y="753" width="160" height="146" as="geometry">
              <mxRectangle x="87" y="445" width="49" height="26" as="alternateBounds" />
            </mxGeometry>
          </mxCell>
        </object>
        <mxCell id="0N4g02ynrCQmDdUy3KtQ-23" value="databaseExists()" style="text;strokeColor=default;fillColor=default;spacingLeft=4;spacingRight=4;overflow=hidden;rotatable=0;points=[[0,0.5],[1,0.5]];portConstraint=eastwest;fontSize=12;shadow=0;glass=0;sketch=0;disableMultiStroke=0;disableMultiStrokeFill=0;fillStyle=solid;" parent="0N4g02ynrCQmDdUy3KtQ-22" vertex="1">
          <mxGeometry y="26" width="160" height="30" as="geometry" />
        </mxCell>
        <mxCell id="0N4g02ynrCQmDdUy3KtQ-24" value="tableExists()" style="text;strokeColor=default;fillColor=none;spacingLeft=4;spacingRight=4;overflow=hidden;rotatable=0;points=[[0,0.5],[1,0.5]];portConstraint=eastwest;fontSize=12;shadow=0;glass=0;sketch=0;disableMultiStroke=0;disableMultiStrokeFill=0;fillStyle=solid;strokeWidth=1;" parent="0N4g02ynrCQmDdUy3KtQ-22" vertex="1">
          <mxGeometry y="56" width="160" height="30" as="geometry" />
        </mxCell>
        <mxCell id="0N4g02ynrCQmDdUy3KtQ-25" value="getPartition()" style="text;strokeColor=default;fillColor=none;spacingLeft=4;spacingRight=4;overflow=hidden;rotatable=0;points=[[0,0.5],[1,0.5]];portConstraint=eastwest;fontSize=12;shadow=0;glass=0;sketch=0;disableMultiStroke=0;disableMultiStrokeFill=0;fillStyle=solid;" parent="0N4g02ynrCQmDdUy3KtQ-22" vertex="1">
          <mxGeometry y="86" width="160" height="30" as="geometry" />
        </mxCell>
        <mxCell id="0N4g02ynrCQmDdUy3KtQ-30" value="createFunction()" style="text;strokeColor=default;fillColor=none;spacingLeft=4;spacingRight=4;overflow=hidden;rotatable=0;points=[[0,0.5],[1,0.5]];portConstraint=eastwest;fontSize=12;shadow=0;glass=0;sketch=0;disableMultiStroke=0;disableMultiStrokeFill=0;fillStyle=solid;" parent="0N4g02ynrCQmDdUy3KtQ-22" vertex="1">
          <mxGeometry y="116" width="160" height="30" as="geometry" />
        </mxCell>
        <mxCell id="0N4g02ynrCQmDdUy3KtQ-32" value="GlobalTempViewManager" style="rounded=1;whiteSpace=wrap;html=1;sketch=1;shadow=0;glass=0;fillColor=#f5f5f5;strokeColor=#666666;overflow=visible;noLabel=0;direction=east;connectable=1;allowArrows=1;portConstraintRotation=0;snapToPoint=0;perimeter=rectanglePerimeter;fixDash=0;autosize=0;container=0;dropTarget=0;collapsible=0;recursiveResize=1;expand=1;treeFolding=0;disableMultiStroke=0;disableMultiStrokeFill=0;dashOffset=1;fillStyle=auto;fontSize=12;fontColor=#333333;" parent="1" vertex="1">
          <mxGeometry x="338" y="1045" width="184" height="42" as="geometry" />
        </mxCell>
        <mxCell id="0N4g02ynrCQmDdUy3KtQ-34" value="FunctionResourceLoader" style="rounded=1;whiteSpace=wrap;html=1;sketch=1;shadow=0;glass=0;overflow=visible;noLabel=0;direction=east;connectable=1;allowArrows=1;portConstraintRotation=0;snapToPoint=0;perimeter=rectanglePerimeter;fixDash=0;autosize=0;container=0;dropTarget=0;collapsible=0;recursiveResize=1;expand=1;treeFolding=0;disableMultiStroke=0;disableMultiStrokeFill=0;dashOffset=1;fillStyle=auto;fontSize=12;fillColor=#f5f5f5;fontColor=#333333;strokeColor=#666666;" parent="1" vertex="1">
          <mxGeometry x="140" y="997.5" width="151" height="37" as="geometry" />
        </mxCell>
        <mxCell id="0N4g02ynrCQmDdUy3KtQ-36" value="FunctionRegistry" style="rounded=1;whiteSpace=wrap;html=1;sketch=1;shadow=0;glass=0;overflow=visible;noLabel=0;direction=east;connectable=1;allowArrows=1;portConstraintRotation=0;snapToPoint=0;perimeter=rectanglePerimeter;fixDash=0;autosize=0;container=0;dropTarget=0;collapsible=0;recursiveResize=1;expand=1;treeFolding=0;disableMultiStroke=0;disableMultiStrokeFill=0;dashOffset=1;fillStyle=auto;fontSize=12;fillColor=#f5f5f5;fontColor=#333333;strokeColor=#666666;" parent="1" vertex="1">
          <mxGeometry x="185" y="915" width="106" height="38" as="geometry" />
        </mxCell>
        <mxCell id="0N4g02ynrCQmDdUy3KtQ-38" value="TableFunctionRegistry" style="rounded=1;whiteSpace=wrap;html=1;sketch=1;shadow=0;glass=0;overflow=visible;noLabel=0;direction=east;connectable=1;allowArrows=1;portConstraintRotation=0;snapToPoint=0;perimeter=rectanglePerimeter;fixDash=0;autosize=0;container=0;dropTarget=0;collapsible=0;recursiveResize=1;expand=1;treeFolding=0;disableMultiStroke=0;disableMultiStrokeFill=0;dashOffset=1;fillStyle=auto;fontSize=12;fillColor=#f5f5f5;fontColor=#333333;strokeColor=#666666;" parent="1" vertex="1">
          <mxGeometry x="542" y="915" width="131" height="39" as="geometry" />
        </mxCell>
        <mxCell id="0N4g02ynrCQmDdUy3KtQ-41" value="Configuration" style="rounded=1;whiteSpace=wrap;html=1;sketch=1;shadow=0;glass=0;overflow=visible;noLabel=0;direction=east;connectable=1;allowArrows=1;portConstraintRotation=0;snapToPoint=0;perimeter=rectanglePerimeter;fixDash=0;autosize=0;container=0;dropTarget=0;collapsible=0;recursiveResize=1;expand=1;treeFolding=0;disableMultiStroke=0;disableMultiStrokeFill=0;dashOffset=1;fillStyle=auto;fontSize=12;fillColor=#f5f5f5;fontColor=#333333;strokeColor=#666666;" parent="1" vertex="1">
          <mxGeometry x="542" y="997.5" width="118" height="35.5" as="geometry" />
        </mxCell>
        <mxCell id="0N4g02ynrCQmDdUy3KtQ-44" value="InMemoryCatalog" style="rounded=1;whiteSpace=wrap;html=1;sketch=1;shadow=0;glass=0;overflow=visible;noLabel=0;direction=east;connectable=1;allowArrows=1;portConstraintRotation=0;snapToPoint=0;perimeter=rectanglePerimeter;fixDash=0;autosize=0;container=0;dropTarget=0;collapsible=0;recursiveResize=1;expand=1;treeFolding=0;disableMultiStroke=0;disableMultiStrokeFill=0;dashOffset=1;fillStyle=auto;fontSize=12;fillColor=#f5f5f5;fontColor=#333333;strokeColor=#666666;" parent="1" vertex="1">
          <mxGeometry x="230" y="693" width="106" height="38" as="geometry" />
        </mxCell>
        <mxCell id="0N4g02ynrCQmDdUy3KtQ-45" value="HiveExternalCatalog" style="rounded=1;whiteSpace=wrap;html=1;sketch=1;shadow=0;glass=0;overflow=visible;noLabel=0;direction=east;connectable=1;allowArrows=1;portConstraintRotation=0;snapToPoint=0;perimeter=rectanglePerimeter;fixDash=0;autosize=0;container=0;dropTarget=0;collapsible=0;recursiveResize=1;expand=1;treeFolding=0;disableMultiStroke=0;disableMultiStrokeFill=0;dashOffset=1;fillStyle=auto;fontSize=12;fillColor=#f5f5f5;fontColor=#333333;strokeColor=#666666;" parent="1" vertex="1">
          <mxGeometry x="506" y="693" width="125" height="39" as="geometry" />
        </mxCell>
        <mxCell id="0N4g02ynrCQmDdUy3KtQ-55" value="" style="edgeStyle=orthogonalEdgeStyle;rounded=0;orthogonalLoop=1;jettySize=auto;html=1;fontFamily=Helvetica;fontSize=14;fontColor=default;entryX=0.5;entryY=0;entryDx=0;entryDy=0;" parent="1" source="0N4g02ynrCQmDdUy3KtQ-50" target="0N4g02ynrCQmDdUy3KtQ-67" edge="1">
          <mxGeometry relative="1" as="geometry">
            <mxPoint x="289.5" y="1391" as="targetPoint" />
          </mxGeometry>
        </mxCell>
        <mxCell id="0N4g02ynrCQmDdUy3KtQ-58" style="edgeStyle=orthogonalEdgeStyle;rounded=0;orthogonalLoop=1;jettySize=auto;html=1;entryX=0.5;entryY=0;entryDx=0;entryDy=0;fontFamily=Helvetica;fontSize=14;fontColor=default;" parent="1" source="0N4g02ynrCQmDdUy3KtQ-50" target="0N4g02ynrCQmDdUy3KtQ-69" edge="1">
          <mxGeometry relative="1" as="geometry">
            <mxPoint x="389.0000000000001" y="1391" as="targetPoint" />
          </mxGeometry>
        </mxCell>
        <mxCell id="0N4g02ynrCQmDdUy3KtQ-50" value="Strategy" style="swimlane;fontStyle=0;childLayout=stackLayout;horizontal=1;startSize=30;horizontalStack=0;resizeParent=1;resizeParentMax=0;resizeLast=0;collapsible=1;marginBottom=0;rounded=1;shadow=0;glass=0;sketch=1;disableMultiStroke=0;disableMultiStrokeFill=0;fillStyle=solid;fontFamily=Helvetica;fontSize=14;strokeColor=#36393d;fillColor=#eeeeee;html=1;" parent="1" vertex="1">
          <mxGeometry x="282.5" y="1292" width="110" height="59" as="geometry">
            <mxRectangle x="132" y="665" width="51" height="30" as="alternateBounds" />
          </mxGeometry>
        </mxCell>
        <mxCell id="0N4g02ynrCQmDdUy3KtQ-51" value="maxIterations" style="text;strokeColor=none;fillColor=none;align=center;verticalAlign=middle;spacingLeft=4;spacingRight=4;overflow=hidden;points=[[0,0.5],[1,0.5]];portConstraint=eastwest;rotatable=0;rounded=1;shadow=0;glass=0;sketch=1;disableMultiStroke=0;disableMultiStrokeFill=0;fillStyle=auto;fontFamily=Helvetica;fontSize=12;fontColor=default;html=1;" parent="0N4g02ynrCQmDdUy3KtQ-50" vertex="1">
          <mxGeometry y="30" width="110" height="29" as="geometry" />
        </mxCell>
        <mxCell id="0N4g02ynrCQmDdUy3KtQ-59" value="Batch" style="swimlane;fontStyle=0;childLayout=stackLayout;horizontal=1;startSize=30;horizontalStack=0;resizeParent=1;resizeParentMax=0;resizeLast=0;collapsible=1;marginBottom=0;rounded=1;shadow=0;glass=0;sketch=1;disableMultiStroke=0;disableMultiStrokeFill=0;fillStyle=solid;fontFamily=Helvetica;fontSize=14;strokeColor=#36393d;fillColor=#eeeeee;html=1;" parent="1" vertex="1">
          <mxGeometry x="514.5" y="1292" width="136" height="118" as="geometry">
            <mxRectangle x="132" y="665" width="51" height="30" as="alternateBounds" />
          </mxGeometry>
        </mxCell>
        <mxCell id="0N4g02ynrCQmDdUy3KtQ-60" value="- name:String" style="text;strokeColor=none;fillColor=none;align=left;verticalAlign=middle;spacingLeft=4;spacingRight=4;overflow=hidden;points=[[0,0.5],[1,0.5]];portConstraint=eastwest;rotatable=0;rounded=1;shadow=0;glass=0;sketch=1;disableMultiStroke=0;disableMultiStrokeFill=0;fillStyle=auto;fontFamily=Helvetica;fontSize=12;fontColor=default;html=1;" parent="0N4g02ynrCQmDdUy3KtQ-59" vertex="1">
          <mxGeometry y="30" width="136" height="29" as="geometry" />
        </mxCell>
        <mxCell id="0N4g02ynrCQmDdUy3KtQ-62" value="- strategy: Strategy" style="text;strokeColor=none;fillColor=none;align=left;verticalAlign=middle;spacingLeft=4;spacingRight=4;overflow=hidden;points=[[0,0.5],[1,0.5]];portConstraint=eastwest;rotatable=0;rounded=1;shadow=0;glass=0;sketch=1;disableMultiStroke=0;disableMultiStrokeFill=0;fillStyle=auto;fontFamily=Helvetica;fontSize=12;fontColor=default;html=1;" parent="0N4g02ynrCQmDdUy3KtQ-59" vertex="1">
          <mxGeometry y="59" width="136" height="29" as="geometry" />
        </mxCell>
        <mxCell id="0N4g02ynrCQmDdUy3KtQ-63" value="- rules: Rule[TreeType]" style="text;strokeColor=none;fillColor=none;align=left;verticalAlign=middle;spacingLeft=4;spacingRight=4;overflow=hidden;points=[[0,0.5],[1,0.5]];portConstraint=eastwest;rotatable=0;rounded=1;shadow=0;glass=0;sketch=1;disableMultiStroke=0;disableMultiStrokeFill=0;fillStyle=auto;fontFamily=Helvetica;fontSize=12;fontColor=default;html=1;" parent="0N4g02ynrCQmDdUy3KtQ-59" vertex="1">
          <mxGeometry y="88" width="136" height="30" as="geometry" />
        </mxCell>
        <mxCell id="0N4g02ynrCQmDdUy3KtQ-64" value="&lt;pre style=&quot;font-family: &amp;quot;jetbrains mono&amp;quot;, monospace; font-size: 9.8pt;&quot;&gt;&lt;span style=&quot;&quot;&gt;batches&lt;/span&gt;: &lt;span style=&quot;&quot;&gt;Seq&lt;/span&gt;[Batch]&lt;/pre&gt;" style="rounded=1;whiteSpace=wrap;html=1;shadow=0;glass=0;sketch=1;disableMultiStroke=0;disableMultiStrokeFill=0;fillStyle=auto;fontFamily=Helvetica;fontSize=14;fontColor=default;strokeColor=none;fillColor=none;labelBackgroundColor=none;" parent="1" vertex="1">
          <mxGeometry x="505.5" y="1452" width="161" height="35" as="geometry" />
        </mxCell>
        <mxCell id="0N4g02ynrCQmDdUy3KtQ-65" value="" style="shape=flexArrow;endArrow=classic;html=1;rounded=0;fontFamily=Helvetica;fontSize=14;fontColor=default;width=10;endSize=7.422222222222222;endWidth=15.555555555555555;" parent="1" edge="1">
          <mxGeometry width="50" height="50" relative="1" as="geometry">
            <mxPoint x="577.5" y="1417" as="sourcePoint" />
            <mxPoint x="577.5" y="1458" as="targetPoint" />
          </mxGeometry>
        </mxCell>
        <mxCell id="0N4g02ynrCQmDdUy3KtQ-66" value="&lt;pre style=&quot;font-family: &amp;quot;jetbrains mono&amp;quot;, monospace; font-size: 9.8pt;&quot;&gt;&lt;span style=&quot;&quot;&gt;def &lt;/span&gt;&lt;span style=&quot;&quot;&gt;execute&lt;/span&gt;(plan: &lt;span style=&quot;&quot;&gt;TreeType&lt;/span&gt;): &lt;span style=&quot;&quot;&gt;TreeType&lt;/span&gt;&lt;/pre&gt;" style="text;html=1;strokeColor=#6c8ebf;fillColor=#dae8fc;align=center;verticalAlign=middle;whiteSpace=wrap;rounded=1;shadow=0;glass=0;labelBackgroundColor=none;sketch=1;disableMultiStroke=0;disableMultiStrokeFill=0;fillStyle=auto;fontFamily=Helvetica;fontSize=14;" parent="1" vertex="1">
          <mxGeometry x="309.5" y="1500" width="305" height="29" as="geometry" />
        </mxCell>
        <mxCell id="0N4g02ynrCQmDdUy3KtQ-67" value="Once" style="swimlane;fontStyle=0;childLayout=stackLayout;horizontal=1;startSize=30;horizontalStack=0;resizeParent=1;resizeParentMax=0;resizeLast=0;collapsible=1;marginBottom=0;rounded=1;shadow=0;glass=0;sketch=1;disableMultiStroke=0;disableMultiStrokeFill=0;fillStyle=solid;fontFamily=Helvetica;fontSize=14;strokeColor=#36393d;fillColor=#eeeeee;html=1;" parent="1" vertex="1">
          <mxGeometry x="212.5" y="1391" width="127" height="59" as="geometry">
            <mxRectangle x="132" y="665" width="51" height="30" as="alternateBounds" />
          </mxGeometry>
        </mxCell>
        <mxCell id="0N4g02ynrCQmDdUy3KtQ-68" value="&lt;span style=&quot;color: rgb(152 , 118 , 170) ; font-style: italic ; font-family: &amp;#34;jetbrains mono&amp;#34; , monospace ; font-size: 9.8pt&quot;&gt;maxIterations=1&lt;/span&gt;" style="text;strokeColor=none;fillColor=none;align=center;verticalAlign=middle;spacingLeft=4;spacingRight=4;overflow=hidden;points=[[0,0.5],[1,0.5]];portConstraint=eastwest;rotatable=0;rounded=1;shadow=0;glass=0;sketch=1;disableMultiStroke=0;disableMultiStrokeFill=0;fillStyle=auto;fontFamily=Helvetica;fontSize=12;fontColor=default;html=1;labelBackgroundColor=none;" parent="0N4g02ynrCQmDdUy3KtQ-67" vertex="1">
          <mxGeometry y="30" width="127" height="29" as="geometry" />
        </mxCell>
        <mxCell id="0N4g02ynrCQmDdUy3KtQ-69" value="&lt;span&gt;FixedPoint&lt;/span&gt;" style="swimlane;fontStyle=0;childLayout=stackLayout;horizontal=1;startSize=30;horizontalStack=0;resizeParent=1;resizeParentMax=0;resizeLast=0;collapsible=1;marginBottom=0;rounded=1;shadow=0;glass=0;sketch=1;disableMultiStroke=0;disableMultiStrokeFill=0;fillStyle=solid;fontFamily=Helvetica;fontSize=14;strokeColor=#36393d;fillColor=#eeeeee;html=1;" parent="1" vertex="1">
          <mxGeometry x="347.5" y="1391" width="127" height="59" as="geometry">
            <mxRectangle x="132" y="665" width="51" height="30" as="alternateBounds" />
          </mxGeometry>
        </mxCell>
        <mxCell id="0N4g02ynrCQmDdUy3KtQ-70" value="&lt;span style=&quot;color: rgb(152 , 118 , 170) ; font-style: italic ; font-family: &amp;#34;jetbrains mono&amp;#34; , monospace ; font-size: 9.8pt&quot;&gt;maxIterations&lt;/span&gt;" style="text;strokeColor=none;fillColor=none;align=center;verticalAlign=middle;spacingLeft=4;spacingRight=4;overflow=hidden;points=[[0,0.5],[1,0.5]];portConstraint=eastwest;rotatable=0;rounded=1;shadow=0;glass=0;sketch=1;disableMultiStroke=0;disableMultiStrokeFill=0;fillStyle=auto;fontFamily=Helvetica;fontSize=12;fontColor=default;html=1;labelBackgroundColor=none;" parent="0N4g02ynrCQmDdUy3KtQ-69" vertex="1">
          <mxGeometry y="30" width="127" height="29" as="geometry" />
        </mxCell>
        <mxCell id="0N4g02ynrCQmDdUy3KtQ-71" style="edgeStyle=orthogonalEdgeStyle;rounded=0;orthogonalLoop=1;jettySize=auto;html=1;entryX=1;entryY=0.5;entryDx=0;entryDy=0;fontFamily=Helvetica;fontSize=14;fontColor=default;dashed=1;" parent="1" source="0N4g02ynrCQmDdUy3KtQ-62" target="0N4g02ynrCQmDdUy3KtQ-50" edge="1">
          <mxGeometry relative="1" as="geometry" />
        </mxCell>
        <mxCell id="0N4g02ynrCQmDdUy3KtQ-72" value="&lt;pre style=&quot;color: rgb(169, 183, 198); font-family: &amp;quot;jetbrains mono&amp;quot;, monospace; font-size: 14px;&quot;&gt;&lt;span style=&quot;color: rgb(106, 135, 89); font-size: 14px;&quot;&gt; 1.Substitution&lt;/span&gt;&lt;/pre&gt;" style="shape=note;size=20;whiteSpace=wrap;html=1;rounded=0;shadow=0;glass=0;labelBackgroundColor=none;sketch=1;disableMultiStroke=0;disableMultiStrokeFill=0;fillStyle=auto;fontFamily=Helvetica;fontSize=14;fontColor=default;strokeColor=default;fillColor=none;gradientColor=#ffffff;gradientDirection=south;align=left;" parent="1" vertex="1">
          <mxGeometry x="280" y="1692.5" width="150" height="36.5" as="geometry" />
        </mxCell>
        <mxCell id="0N4g02ynrCQmDdUy3KtQ-88" style="edgeStyle=orthogonalEdgeStyle;rounded=0;orthogonalLoop=1;jettySize=auto;html=1;fontFamily=Helvetica;fontSize=14;fontColor=#6A8759;fillColor=default;exitX=0;exitY=0;exitDx=146.5;exitDy=28;exitPerimeter=0;dashed=1;endArrow=none;endFill=0;startArrow=classic;startFill=1;" parent="1" source="0N4g02ynrCQmDdUy3KtQ-74" edge="1">
          <mxGeometry relative="1" as="geometry">
            <mxPoint x="481.5" y="1895" as="targetPoint" />
            <Array as="points">
              <mxPoint x="481.5" y="1785" />
              <mxPoint x="481.5" y="1891" />
            </Array>
          </mxGeometry>
        </mxCell>
        <mxCell id="0N4g02ynrCQmDdUy3KtQ-74" value="&lt;pre style=&quot;color: rgb(169, 183, 198); font-family: &amp;quot;jetbrains mono&amp;quot;, monospace; font-size: 14px;&quot;&gt;&lt;span style=&quot;color: rgb(106, 135, 89); font-size: 14px;&quot;&gt; 2.Resolution&lt;/span&gt;&lt;/pre&gt;" style="shape=note;size=20;whiteSpace=wrap;html=1;rounded=0;shadow=0;glass=0;labelBackgroundColor=none;sketch=1;disableMultiStroke=0;disableMultiStrokeFill=0;fillStyle=auto;fontFamily=Helvetica;fontSize=14;fontColor=default;strokeColor=default;fillColor=none;gradientColor=#ffffff;gradientDirection=south;align=left;" parent="1" vertex="1">
          <mxGeometry x="280" y="1756.5" width="146.5" height="36" as="geometry" />
        </mxCell>
        <mxCell id="0N4g02ynrCQmDdUy3KtQ-75" value="&lt;pre style=&quot;font-family: &amp;quot;jetbrains mono&amp;quot;, monospace; font-size: 14px;&quot;&gt;&lt;span style=&quot;color: rgb(106, 135, 89); font-size: 14px;&quot;&gt; 3.&lt;/span&gt;&lt;font color=&quot;#6a8759&quot; style=&quot;font-size: 14px;&quot;&gt;Nondeterministic&lt;/font&gt;&lt;/pre&gt;" style="shape=note;size=20;whiteSpace=wrap;html=1;rounded=0;shadow=0;glass=0;labelBackgroundColor=none;sketch=1;disableMultiStroke=0;disableMultiStrokeFill=0;fillStyle=auto;fontFamily=Helvetica;fontSize=14;fontColor=default;strokeColor=default;fillColor=none;gradientColor=#ffffff;gradientDirection=south;align=left;" parent="1" vertex="1">
          <mxGeometry x="277" y="1824.5" width="183" height="37.5" as="geometry" />
        </mxCell>
        <mxCell id="0N4g02ynrCQmDdUy3KtQ-77" value="&lt;pre style=&quot;color: rgb(169, 183, 198); font-family: &amp;quot;jetbrains mono&amp;quot;, monospace; font-size: 14px;&quot;&gt;&lt;span style=&quot;color: rgb(106, 135, 89); font-size: 14px;&quot;&gt; 4.UDF&lt;/span&gt;&lt;/pre&gt;" style="shape=note;size=20;whiteSpace=wrap;html=1;rounded=0;shadow=0;glass=0;labelBackgroundColor=none;sketch=1;disableMultiStroke=0;disableMultiStrokeFill=0;fillStyle=auto;fontFamily=Helvetica;fontSize=14;fontColor=default;strokeColor=default;fillColor=none;gradientColor=#ffffff;gradientDirection=south;align=left;" parent="1" vertex="1">
          <mxGeometry x="579" y="1689" width="144" height="36" as="geometry" />
        </mxCell>
        <mxCell id="0N4g02ynrCQmDdUy3KtQ-78" value="&lt;pre style=&quot;color: rgb(169, 183, 198); font-family: &amp;quot;jetbrains mono&amp;quot;, monospace; font-size: 14px;&quot;&gt;&lt;span style=&quot;color: rgb(106, 135, 89); font-size: 14px;&quot;&gt; 5.FixNullability&lt;/span&gt;&lt;/pre&gt;" style="shape=note;size=20;whiteSpace=wrap;html=1;rounded=0;shadow=0;glass=0;labelBackgroundColor=none;sketch=1;disableMultiStroke=0;disableMultiStrokeFill=0;fillStyle=auto;fontFamily=Helvetica;fontSize=14;fontColor=default;strokeColor=default;fillColor=none;gradientColor=#ffffff;gradientDirection=south;align=left;" parent="1" vertex="1">
          <mxGeometry x="580" y="1756.5" width="169" height="35" as="geometry" />
        </mxCell>
        <mxCell id="0N4g02ynrCQmDdUy3KtQ-79" value="&lt;pre style=&quot;font-family: &amp;quot;jetbrains mono&amp;quot;, monospace; font-size: 14px;&quot;&gt;&lt;span style=&quot;color: rgb(106, 135, 89); font-size: 14px;&quot;&gt; 6.&lt;/span&gt;&lt;font color=&quot;#6a8759&quot; style=&quot;font-size: 14px;&quot;&gt;Cleanup&lt;/font&gt;&lt;/pre&gt;" style="shape=note;size=20;whiteSpace=wrap;html=1;rounded=0;shadow=0;glass=0;labelBackgroundColor=none;sketch=1;disableMultiStroke=0;disableMultiStrokeFill=0;fillStyle=auto;fontFamily=Helvetica;fontSize=14;fontColor=default;strokeColor=default;fillColor=none;gradientColor=#ffffff;gradientDirection=south;align=left;" parent="1" vertex="1">
          <mxGeometry x="579" y="1820" width="151" height="36.5" as="geometry" />
        </mxCell>
        <mxCell id="0N4g02ynrCQmDdUy3KtQ-80" value="&lt;pre&gt;override &lt;font face=&quot;jetbrains mono, monospace&quot;&gt;&lt;span style=&quot;font-size: 13.0667px&quot;&gt;batches: &lt;br&gt;Seq[Batch]&lt;/span&gt;&lt;span style=&quot;font-size: 9.8pt&quot;&gt;&lt;br&gt;&lt;/span&gt;&lt;/font&gt;&lt;/pre&gt;" style="rounded=1;whiteSpace=wrap;html=1;shadow=0;glass=0;sketch=1;disableMultiStroke=0;disableMultiStrokeFill=0;fillStyle=auto;fontFamily=Helvetica;fontSize=14;fontColor=#FF3333;strokeColor=none;fillColor=none;labelBackgroundColor=none;labelBorderColor=none;fontStyle=1" parent="1" vertex="1">
          <mxGeometry x="410" y="1739" width="184" height="41" as="geometry" />
        </mxCell>
        <mxCell id="0N4g02ynrCQmDdUy3KtQ-82" value="&lt;pre style=&quot;font-family: &amp;#34;jetbrains mono&amp;#34; , monospace ; font-size: 14px&quot;&gt;&lt;font color=&quot;#6a8759&quot;&gt;....&lt;/font&gt;&lt;/pre&gt;" style="shape=note;size=20;whiteSpace=wrap;html=1;rounded=0;shadow=0;glass=0;labelBackgroundColor=none;sketch=1;disableMultiStroke=0;disableMultiStrokeFill=0;fillStyle=auto;fontFamily=Helvetica;fontSize=14;fontColor=default;strokeColor=default;fillColor=none;gradientColor=#ffffff;gradientDirection=south;align=left;" parent="1" vertex="1">
          <mxGeometry x="579" y="1873" width="151" height="36.5" as="geometry" />
        </mxCell>
        <mxCell id="0N4g02ynrCQmDdUy3KtQ-87" value="&lt;pre style=&quot;font-family: &amp;#34;jetbrains mono&amp;#34; , monospace ; font-size: 14px&quot;&gt;&lt;span style=&quot;color: rgb(106 , 135 , 89) ; font-size: 14px&quot;&gt; extendedResolutionRules&lt;/span&gt;&lt;/pre&gt;" style="shape=note;size=20;whiteSpace=wrap;html=1;rounded=0;shadow=0;glass=0;labelBackgroundColor=none;sketch=1;disableMultiStroke=0;disableMultiStrokeFill=0;fillStyle=auto;fontFamily=Helvetica;fontSize=14;fontColor=default;strokeColor=default;fillColor=none;gradientColor=#ffffff;gradientDirection=south;align=left;" parent="1" vertex="1">
          <mxGeometry x="277" y="1891" width="241" height="39" as="geometry" />
        </mxCell>
        <mxCell id="6svz-Yu5DE2-0Qyf26-9-1" value="&lt;pre style=&quot;font-family: &amp;quot;jetbrains mono&amp;quot;, monospace; font-size: 16px;&quot;&gt;RuleExecutor&lt;/pre&gt;" style="rounded=1;whiteSpace=wrap;html=1;labelBackgroundColor=none;fontSize=16;sketch=1;shadow=0;fillColor=#eeeeee;strokeColor=#36393d;" parent="1" vertex="1">
          <mxGeometry x="32" y="1776.5" width="137" height="53" as="geometry" />
        </mxCell>
        <mxCell id="6svz-Yu5DE2-0Qyf26-9-9" value="" style="edgeStyle=orthogonalEdgeStyle;rounded=0;orthogonalLoop=1;jettySize=auto;html=1;fontSize=16;fontColor=#000000;" parent="1" source="6svz-Yu5DE2-0Qyf26-9-6" target="6svz-Yu5DE2-0Qyf26-9-7" edge="1">
          <mxGeometry relative="1" as="geometry" />
        </mxCell>
        <mxCell id="6svz-Yu5DE2-0Qyf26-9-12" style="edgeStyle=orthogonalEdgeStyle;rounded=0;orthogonalLoop=1;jettySize=auto;html=1;entryX=0;entryY=0.5;entryDx=0;entryDy=0;fontSize=16;fontColor=#000000;curved=1;exitX=0;exitY=0.5;exitDx=0;exitDy=0;" parent="1" source="6svz-Yu5DE2-0Qyf26-9-6" target="6svz-Yu5DE2-0Qyf26-9-7" edge="1">
          <mxGeometry relative="1" as="geometry" />
        </mxCell>
        <mxCell id="6svz-Yu5DE2-0Qyf26-9-6" value="&lt;font color=&quot;#000000&quot;&gt;rule1&lt;/font&gt;" style="rounded=1;whiteSpace=wrap;html=1;shadow=0;labelBackgroundColor=none;labelBorderColor=none;sketch=0;fontSize=16;fillColor=#fff2cc;strokeColor=#d6b656;" parent="1" vertex="1">
          <mxGeometry x="509.25" y="2193" width="94" height="33" as="geometry" />
        </mxCell>
        <mxCell id="6svz-Yu5DE2-0Qyf26-9-15" style="edgeStyle=orthogonalEdgeStyle;curved=1;rounded=0;orthogonalLoop=1;jettySize=auto;html=1;entryX=0;entryY=0.5;entryDx=0;entryDy=0;fontSize=16;fontColor=#000000;exitX=0;exitY=0.5;exitDx=0;exitDy=0;" parent="1" source="6svz-Yu5DE2-0Qyf26-9-7" target="6svz-Yu5DE2-0Qyf26-9-11" edge="1">
          <mxGeometry relative="1" as="geometry" />
        </mxCell>
        <mxCell id="6svz-Yu5DE2-0Qyf26-9-7" value="&lt;font color=&quot;#000000&quot;&gt;rule2&lt;/font&gt;" style="rounded=1;whiteSpace=wrap;html=1;shadow=0;labelBackgroundColor=none;labelBorderColor=none;sketch=0;fontSize=16;fillColor=#fff2cc;strokeColor=#d6b656;" parent="1" vertex="1">
          <mxGeometry x="509.25" y="2255" width="94" height="33" as="geometry" />
        </mxCell>
        <mxCell id="6svz-Yu5DE2-0Qyf26-9-10" value="" style="edgeStyle=orthogonalEdgeStyle;rounded=0;orthogonalLoop=1;jettySize=auto;html=1;fontSize=16;fontColor=#000000;entryX=0.5;entryY=0;entryDx=0;entryDy=0;" parent="1" target="6svz-Yu5DE2-0Qyf26-9-11" edge="1">
          <mxGeometry relative="1" as="geometry">
            <mxPoint x="553.75" y="2288" as="sourcePoint" />
            <mxPoint x="566.2672413793105" y="2264.9999999999995" as="targetPoint" />
            <Array as="points">
              <mxPoint x="554.75" y="2288" />
            </Array>
          </mxGeometry>
        </mxCell>
        <mxCell id="6svz-Yu5DE2-0Qyf26-9-14" value="" style="edgeStyle=orthogonalEdgeStyle;curved=1;rounded=0;orthogonalLoop=1;jettySize=auto;html=1;fontSize=16;fontColor=#000000;" parent="1" source="6svz-Yu5DE2-0Qyf26-9-11" target="6svz-Yu5DE2-0Qyf26-9-13" edge="1">
          <mxGeometry relative="1" as="geometry" />
        </mxCell>
        <mxCell id="6svz-Yu5DE2-0Qyf26-9-16" style="edgeStyle=orthogonalEdgeStyle;curved=1;rounded=0;orthogonalLoop=1;jettySize=auto;html=1;entryX=0;entryY=0.5;entryDx=0;entryDy=0;fontSize=16;fontColor=#000000;exitX=0;exitY=0.5;exitDx=0;exitDy=0;" parent="1" source="6svz-Yu5DE2-0Qyf26-9-11" target="6svz-Yu5DE2-0Qyf26-9-13" edge="1">
          <mxGeometry relative="1" as="geometry" />
        </mxCell>
        <mxCell id="6svz-Yu5DE2-0Qyf26-9-11" value="..." style="text;html=1;strokeColor=#d6b656;fillColor=#fff2cc;align=center;verticalAlign=middle;whiteSpace=wrap;rounded=1;shadow=0;labelBackgroundColor=none;labelBorderColor=none;sketch=0;fontSize=16;fontColor=default;" parent="1" vertex="1">
          <mxGeometry x="509.75" y="2319" width="90" height="26" as="geometry" />
        </mxCell>
        <mxCell id="6svz-Yu5DE2-0Qyf26-9-17" style="edgeStyle=orthogonalEdgeStyle;curved=1;rounded=0;orthogonalLoop=1;jettySize=auto;html=1;fontSize=16;fontColor=#000000;entryX=1;entryY=0.5;entryDx=0;entryDy=0;exitX=1;exitY=0.5;exitDx=0;exitDy=0;" parent="1" source="6svz-Yu5DE2-0Qyf26-9-13" target="6svz-Yu5DE2-0Qyf26-9-6" edge="1">
          <mxGeometry relative="1" as="geometry">
            <mxPoint x="609.875" y="2225.75" as="targetPoint" />
            <Array as="points">
              <mxPoint x="628.75" y="2389" />
              <mxPoint x="628.75" y="2210" />
            </Array>
          </mxGeometry>
        </mxCell>
        <mxCell id="6svz-Yu5DE2-0Qyf26-9-13" value="&lt;font color=&quot;#000000&quot;&gt;rulen&lt;/font&gt;" style="rounded=1;whiteSpace=wrap;html=1;shadow=0;labelBackgroundColor=none;labelBorderColor=none;sketch=0;fontSize=16;fillColor=#fff2cc;strokeColor=#d6b656;" parent="1" vertex="1">
          <mxGeometry x="507.75" y="2372" width="94" height="33" as="geometry" />
        </mxCell>
        <mxCell id="6svz-Yu5DE2-0Qyf26-9-18" value="" style="edgeStyle=orthogonalEdgeStyle;rounded=0;orthogonalLoop=1;jettySize=auto;html=1;fontSize=16;fontColor=#000000;" parent="1" source="6svz-Yu5DE2-0Qyf26-9-20" target="6svz-Yu5DE2-0Qyf26-9-22" edge="1">
          <mxGeometry relative="1" as="geometry" />
        </mxCell>
        <mxCell id="6svz-Yu5DE2-0Qyf26-9-20" value="&lt;font color=&quot;#000000&quot;&gt;rule1&lt;/font&gt;" style="rounded=1;whiteSpace=wrap;html=1;shadow=0;labelBackgroundColor=none;labelBorderColor=none;sketch=0;fontSize=16;fillColor=#fff2cc;strokeColor=#d6b656;" parent="1" vertex="1">
          <mxGeometry x="319.68" y="2219.5" width="94" height="33" as="geometry" />
        </mxCell>
        <mxCell id="6svz-Yu5DE2-0Qyf26-9-22" value="&lt;font color=&quot;#000000&quot;&gt;rule2&lt;/font&gt;" style="rounded=1;whiteSpace=wrap;html=1;shadow=0;labelBackgroundColor=none;labelBorderColor=none;sketch=0;fontSize=16;fillColor=#fff2cc;strokeColor=#d6b656;" parent="1" vertex="1">
          <mxGeometry x="319.68" y="2281.5" width="94" height="33" as="geometry" />
        </mxCell>
        <mxCell id="6svz-Yu5DE2-0Qyf26-9-23" value="" style="edgeStyle=orthogonalEdgeStyle;rounded=0;orthogonalLoop=1;jettySize=auto;html=1;fontSize=16;fontColor=#000000;entryX=0.5;entryY=0;entryDx=0;entryDy=0;" parent="1" target="6svz-Yu5DE2-0Qyf26-9-26" edge="1">
          <mxGeometry relative="1" as="geometry">
            <mxPoint x="364.18" y="2314.5" as="sourcePoint" />
            <mxPoint x="376.69724137931047" y="2291.4999999999995" as="targetPoint" />
            <Array as="points">
              <mxPoint x="365.18" y="2314.5" />
            </Array>
          </mxGeometry>
        </mxCell>
        <mxCell id="6svz-Yu5DE2-0Qyf26-9-24" value="" style="rounded=0;orthogonalLoop=1;jettySize=auto;html=1;fontSize=16;fontColor=#000000;" parent="1" source="6svz-Yu5DE2-0Qyf26-9-26" edge="1">
          <mxGeometry relative="1" as="geometry">
            <mxPoint x="364.75" y="2401" as="targetPoint" />
          </mxGeometry>
        </mxCell>
        <mxCell id="6svz-Yu5DE2-0Qyf26-9-26" value="..." style="text;html=1;strokeColor=#d6b656;fillColor=#fff2cc;align=center;verticalAlign=middle;whiteSpace=wrap;rounded=1;shadow=0;labelBackgroundColor=none;labelBorderColor=none;sketch=0;fontSize=16;fontColor=default;" parent="1" vertex="1">
          <mxGeometry x="320.18" y="2345.5" width="90" height="26" as="geometry" />
        </mxCell>
        <mxCell id="6svz-Yu5DE2-0Qyf26-9-30" value="Once" style="text;html=1;strokeColor=none;fillColor=none;align=center;verticalAlign=middle;whiteSpace=wrap;rounded=0;shadow=0;dashed=1;labelBackgroundColor=none;labelBorderColor=none;sketch=0;fontSize=16;fontColor=#B5739D;" parent="1" vertex="1">
          <mxGeometry x="340.25" y="2176" width="60" height="30" as="geometry" />
        </mxCell>
        <mxCell id="6svz-Yu5DE2-0Qyf26-9-32" value="fixedpoint" style="text;html=1;strokeColor=none;fillColor=none;align=center;verticalAlign=middle;whiteSpace=wrap;rounded=0;shadow=0;dashed=1;labelBackgroundColor=none;labelBorderColor=none;sketch=0;fontSize=16;fontColor=#B5739D;" parent="1" vertex="1">
          <mxGeometry x="526.25" y="2161" width="60" height="30" as="geometry" />
        </mxCell>
        <mxCell id="6svz-Yu5DE2-0Qyf26-9-41" value="" style="edgeStyle=orthogonalEdgeStyle;rounded=0;orthogonalLoop=1;jettySize=auto;html=1;fontSize=16;fontColor=#B5739D;" parent="1" source="6svz-Yu5DE2-0Qyf26-9-34" target="6svz-Yu5DE2-0Qyf26-9-35" edge="1">
          <mxGeometry relative="1" as="geometry" />
        </mxCell>
        <mxCell id="6svz-Yu5DE2-0Qyf26-9-34" value="execute" style="text;html=1;strokeColor=#82b366;fillColor=#d5e8d4;align=center;verticalAlign=middle;whiteSpace=wrap;rounded=1;shadow=0;labelBackgroundColor=none;labelBorderColor=none;sketch=0;fontSize=16;" parent="1" vertex="1">
          <mxGeometry x="338.75" y="2575" width="127" height="46" as="geometry" />
        </mxCell>
        <mxCell id="6svz-Yu5DE2-0Qyf26-9-38" value="" style="edgeStyle=none;rounded=0;orthogonalLoop=1;jettySize=auto;html=1;fontSize=16;fontColor=#B5739D;" parent="1" source="6svz-Yu5DE2-0Qyf26-9-35" target="6svz-Yu5DE2-0Qyf26-9-37" edge="1">
          <mxGeometry relative="1" as="geometry" />
        </mxCell>
        <mxCell id="6svz-Yu5DE2-0Qyf26-9-35" value="batches.foreach" style="text;html=1;strokeColor=#666666;fillColor=#f5f5f5;align=center;verticalAlign=middle;whiteSpace=wrap;rounded=1;shadow=0;labelBackgroundColor=none;labelBorderColor=none;sketch=0;fontSize=16;fontColor=#333333;" parent="1" vertex="1">
          <mxGeometry x="337.25" y="2657" width="130" height="47" as="geometry" />
        </mxCell>
        <mxCell id="6svz-Yu5DE2-0Qyf26-9-40" value="" style="edgeStyle=none;rounded=0;orthogonalLoop=1;jettySize=auto;html=1;fontSize=16;fontColor=#B5739D;" parent="1" source="6svz-Yu5DE2-0Qyf26-9-37" target="6svz-Yu5DE2-0Qyf26-9-39" edge="1">
          <mxGeometry relative="1" as="geometry" />
        </mxCell>
        <mxCell id="6svz-Yu5DE2-0Qyf26-9-37" value="while(continue)" style="ellipse;whiteSpace=wrap;html=1;fontSize=16;fillColor=#f5f5f5;strokeColor=#666666;rounded=1;shadow=0;labelBackgroundColor=none;labelBorderColor=none;sketch=0;fontColor=#333333;" parent="1" vertex="1">
          <mxGeometry x="339.25" y="2743" width="126" height="60.5" as="geometry" />
        </mxCell>
        <mxCell id="6svz-Yu5DE2-0Qyf26-9-43" value="" style="edgeStyle=orthogonalEdgeStyle;rounded=0;sketch=0;orthogonalLoop=1;jettySize=auto;html=1;fontSize=16;fontColor=#B5739D;" parent="1" source="6svz-Yu5DE2-0Qyf26-9-39" target="6svz-Yu5DE2-0Qyf26-9-42" edge="1">
          <mxGeometry relative="1" as="geometry" />
        </mxCell>
        <mxCell id="6svz-Yu5DE2-0Qyf26-9-39" value="curPlan = batch.rules.foldLeft(curPlan)" style="whiteSpace=wrap;html=1;fontSize=16;fillColor=#f5f5f5;strokeColor=#666666;rounded=1;shadow=0;labelBackgroundColor=none;labelBorderColor=none;sketch=0;fontColor=#333333;" parent="1" vertex="1">
          <mxGeometry x="257.25" y="2846" width="288" height="53.75" as="geometry" />
        </mxCell>
        <mxCell id="6svz-Yu5DE2-0Qyf26-9-44" style="edgeStyle=orthogonalEdgeStyle;rounded=0;sketch=0;orthogonalLoop=1;jettySize=auto;html=1;entryX=0;entryY=0.5;entryDx=0;entryDy=0;fontSize=16;fontColor=#B5739D;curved=1;exitX=0;exitY=0.5;exitDx=0;exitDy=0;" parent="1" source="6svz-Yu5DE2-0Qyf26-9-42" target="6svz-Yu5DE2-0Qyf26-9-37" edge="1">
          <mxGeometry relative="1" as="geometry">
            <Array as="points">
              <mxPoint x="202.25" y="2970" />
              <mxPoint x="202.25" y="2773" />
            </Array>
          </mxGeometry>
        </mxCell>
        <mxCell id="6svz-Yu5DE2-0Qyf26-9-46" value="没有达到最大迭代次数并且&lt;br&gt;curPlan.fastEquals(lastPlan)&lt;br&gt;不相等" style="edgeLabel;html=1;align=left;verticalAlign=middle;resizable=0;points=[];fontSize=12;fontColor=#FF3333;" parent="6svz-Yu5DE2-0Qyf26-9-44" vertex="1" connectable="0">
          <mxGeometry x="0.1695" y="-10" relative="1" as="geometry">
            <mxPoint x="-117" y="21" as="offset" />
          </mxGeometry>
        </mxCell>
        <mxCell id="6svz-Yu5DE2-0Qyf26-9-48" style="edgeStyle=orthogonalEdgeStyle;curved=1;rounded=0;sketch=0;orthogonalLoop=1;jettySize=auto;html=1;entryX=1;entryY=0.5;entryDx=0;entryDy=0;fontSize=12;fontColor=#FF3333;exitX=1;exitY=0.5;exitDx=0;exitDy=0;" parent="1" source="6svz-Yu5DE2-0Qyf26-9-42" target="6svz-Yu5DE2-0Qyf26-9-35" edge="1">
          <mxGeometry relative="1" as="geometry">
            <Array as="points">
              <mxPoint x="586.25" y="2970" />
              <mxPoint x="586.25" y="2680" />
            </Array>
          </mxGeometry>
        </mxCell>
        <mxCell id="6svz-Yu5DE2-0Qyf26-9-42" value="iteration +=1" style="whiteSpace=wrap;html=1;fontSize=16;fillColor=#f5f5f5;strokeColor=#666666;fontColor=#333333;rounded=1;shadow=0;labelBackgroundColor=none;labelBorderColor=none;sketch=0;" parent="1" vertex="1">
          <mxGeometry x="341.25" y="2939.995" width="120" height="60" as="geometry" />
        </mxCell>
        <mxCell id="6svz-Yu5DE2-0Qyf26-9-47" value="迭代batches" style="edgeLabel;html=1;align=left;verticalAlign=middle;resizable=0;points=[];fontSize=12;fontColor=#FF3333;" parent="1" vertex="1" connectable="0">
          <mxGeometry x="259.25" y="2677.999411854634" as="geometry" />
        </mxCell>
        <mxCell id="6svz-Yu5DE2-0Qyf26-9-49" value="1. iteration达到最大迭代次数&lt;br&gt;2. 当前 plan 和 lastplan 相比没有变化&lt;br&gt;只要满足其一，continue置为false，结束此次batch" style="edgeLabel;align=left;verticalAlign=middle;resizable=0;points=[];fontSize=12;fontColor=#FF3333;html=1;" parent="1" vertex="1" connectable="0">
          <mxGeometry x="528.31" y="2796.999411854634" as="geometry" />
        </mxCell>
        <mxCell id="6svz-Yu5DE2-0Qyf26-9-50" value="&lt;pre style=&quot;font-family: &amp;#34;jetbrains mono&amp;#34; , monospace ; font-size: 9.8pt&quot;&gt;ResolveRelations&lt;/pre&gt;" style="text;whiteSpace=wrap;html=1;fontSize=16;align=center;verticalAlign=top;rounded=1;shadow=0;labelBackgroundColor=none;labelBorderColor=none;sketch=0;fillColor=#f5f5f5;strokeColor=#666666;fontColor=#333333;" parent="1" vertex="1">
          <mxGeometry x="1066" y="671" width="147" height="98" as="geometry" />
        </mxCell>
        <mxCell id="6svz-Yu5DE2-0Qyf26-9-53" style="edgeStyle=orthogonalEdgeStyle;rounded=0;sketch=0;orthogonalLoop=1;jettySize=auto;html=1;fontSize=12;fontColor=#1A1A1A;entryX=0.5;entryY=0;entryDx=0;entryDy=0;" parent="1" source="6svz-Yu5DE2-0Qyf26-9-51" target="6svz-Yu5DE2-0Qyf26-9-54" edge="1">
          <mxGeometry relative="1" as="geometry">
            <mxPoint x="1140.5" y="839.7857142857144" as="targetPoint" />
          </mxGeometry>
        </mxCell>
        <mxCell id="6svz-Yu5DE2-0Qyf26-9-51" value="apply()" style="rounded=1;whiteSpace=wrap;html=1;shadow=0;labelBackgroundColor=none;labelBorderColor=none;sketch=0;fontSize=12;strokeWidth=1;fillColor=#ffe6cc;strokeColor=#d79b00;" parent="1" vertex="1">
          <mxGeometry x="1107.5" y="717" width="66.5" height="30" as="geometry" />
        </mxCell>
        <mxCell id="6svz-Yu5DE2-0Qyf26-9-54" value="&amp;nbsp;ResolveTempViews" style="rounded=1;whiteSpace=wrap;html=1;shadow=0;labelBackgroundColor=none;labelBorderColor=none;sketch=0;fontSize=12;fontColor=#333333;strokeColor=#666666;strokeWidth=1;fillColor=#f5f5f5;verticalAlign=top;align=left;" parent="1" vertex="1">
          <mxGeometry x="1031" y="793" width="219" height="119" as="geometry" />
        </mxCell>
        <mxCell id="6svz-Yu5DE2-0Qyf26-9-57" value="" style="edgeStyle=orthogonalEdgeStyle;rounded=0;sketch=0;orthogonalLoop=1;jettySize=auto;html=1;fontSize=12;fontColor=#1A1A1A;" parent="1" source="6svz-Yu5DE2-0Qyf26-9-55" target="6svz-Yu5DE2-0Qyf26-9-56" edge="1">
          <mxGeometry relative="1" as="geometry" />
        </mxCell>
        <mxCell id="6svz-Yu5DE2-0Qyf26-9-55" value="lookupAndResolveTempView" style="rounded=1;whiteSpace=wrap;html=1;shadow=0;labelBackgroundColor=none;labelBorderColor=none;sketch=0;fontSize=8;strokeWidth=1;fontFamily=Helvetica;fillColor=#ffe6cc;strokeColor=#d79b00;" parent="1" vertex="1">
          <mxGeometry x="1058" y="825" width="170" height="29" as="geometry" />
        </mxCell>
        <mxCell id="6svz-Yu5DE2-0Qyf26-9-59" value="" style="edgeStyle=orthogonalEdgeStyle;rounded=0;sketch=0;orthogonalLoop=1;jettySize=auto;html=1;fontFamily=Helvetica;fontSize=8;fontColor=#1A1A1A;elbow=vertical;curved=1;" parent="1" source="6svz-Yu5DE2-0Qyf26-9-56" target="6svz-Yu5DE2-0Qyf26-9-58" edge="1">
          <mxGeometry relative="1" as="geometry" />
        </mxCell>
        <mxCell id="6svz-Yu5DE2-0Qyf26-9-61" value="" style="edgeStyle=orthogonalEdgeStyle;curved=1;rounded=0;sketch=0;orthogonalLoop=1;jettySize=auto;html=1;fontFamily=Helvetica;fontSize=8;fontColor=#1A1A1A;elbow=vertical;" parent="1" source="6svz-Yu5DE2-0Qyf26-9-56" target="6svz-Yu5DE2-0Qyf26-9-60" edge="1">
          <mxGeometry relative="1" as="geometry" />
        </mxCell>
        <mxCell id="6svz-Yu5DE2-0Qyf26-9-56" value="lookupTempView" style="rounded=1;whiteSpace=wrap;html=1;shadow=0;labelBackgroundColor=none;labelBorderColor=none;sketch=0;fontSize=12;strokeWidth=1;fontFamily=Helvetica;fillColor=#ffe6cc;strokeColor=#d79b00;" parent="1" vertex="1">
          <mxGeometry x="1058" y="868" width="170" height="29" as="geometry" />
        </mxCell>
        <mxCell id="6svz-Yu5DE2-0Qyf26-9-58" value="lookupTempView(part1)&lt;br&gt;(table)" style="rounded=1;whiteSpace=wrap;html=1;shadow=0;labelBackgroundColor=none;labelBorderColor=none;sketch=0;fontSize=12;strokeWidth=1;fontFamily=Helvetica;fillColor=#ffe6cc;strokeColor=#d79b00;" parent="1" vertex="1">
          <mxGeometry x="954.5" y="984" width="173.5" height="37" as="geometry" />
        </mxCell>
        <mxCell id="6svz-Yu5DE2-0Qyf26-9-60" value="lookupGlobalTempView(part1, part2)&lt;br&gt;(db.table)" style="rounded=1;whiteSpace=wrap;html=1;shadow=0;labelBackgroundColor=none;labelBorderColor=none;sketch=0;fontSize=12;strokeWidth=1;fontFamily=Helvetica;fillColor=#ffe6cc;strokeColor=#d79b00;" parent="1" vertex="1">
          <mxGeometry x="1143.5" y="983" width="202.5" height="38" as="geometry" />
        </mxCell>
        <mxCell id="6svz-Yu5DE2-0Qyf26-9-68" value="" style="edgeStyle=orthogonalEdgeStyle;curved=1;rounded=0;sketch=0;orthogonalLoop=1;jettySize=auto;html=1;fontFamily=Helvetica;fontSize=17;fontColor=#1A1A1A;elbow=vertical;" parent="1" source="6svz-Yu5DE2-0Qyf26-9-66" target="6svz-Yu5DE2-0Qyf26-9-67" edge="1">
          <mxGeometry relative="1" as="geometry" />
        </mxCell>
        <mxCell id="6svz-Yu5DE2-0Qyf26-9-66" value="&lt;pre style=&quot;font-family: &amp;#34;jetbrains mono&amp;#34; , monospace ; font-size: 17px&quot;&gt;ResolveRelations.apply()&lt;/pre&gt;" style="text;whiteSpace=wrap;html=1;fontSize=17;align=center;verticalAlign=middle;rounded=1;shadow=0;labelBackgroundColor=none;labelBorderColor=none;sketch=0;fillColor=#d5e8d4;strokeColor=#82b366;" parent="1" vertex="1">
          <mxGeometry x="1000" y="1210" width="255" height="61" as="geometry" />
        </mxCell>
        <mxCell id="6svz-Yu5DE2-0Qyf26-9-70" value="" style="rounded=0;sketch=0;orthogonalLoop=1;jettySize=auto;html=1;fontFamily=Helvetica;fontSize=17;fontColor=#1A1A1A;elbow=vertical;edgeStyle=orthogonalEdgeStyle;" parent="1" source="6svz-Yu5DE2-0Qyf26-9-67" target="6svz-Yu5DE2-0Qyf26-9-69" edge="1">
          <mxGeometry relative="1" as="geometry" />
        </mxCell>
        <mxCell id="6svz-Yu5DE2-0Qyf26-9-67" value="&lt;pre style=&quot;font-family: &amp;#34;jetbrains mono&amp;#34; , monospace ; font-size: 17px&quot;&gt;ResolveTempViews.apply()&lt;/pre&gt;" style="text;whiteSpace=wrap;html=1;fontSize=17;align=center;verticalAlign=middle;rounded=1;shadow=0;labelBackgroundColor=none;labelBorderColor=none;sketch=1;strokeColor=default;" parent="1" vertex="1">
          <mxGeometry x="1000" y="1314" width="255" height="61" as="geometry" />
        </mxCell>
        <mxCell id="KYrOxUyAsJtOEbto99pf-2" value="" style="edgeStyle=orthogonalEdgeStyle;rounded=0;orthogonalLoop=1;jettySize=auto;html=1;fontColor=#3333FF;" parent="1" source="6svz-Yu5DE2-0Qyf26-9-69" target="KYrOxUyAsJtOEbto99pf-1" edge="1">
          <mxGeometry relative="1" as="geometry">
            <Array as="points">
              <mxPoint x="1491" y="1412" />
              <mxPoint x="1130" y="1412" />
            </Array>
          </mxGeometry>
        </mxCell>
        <mxCell id="6svz-Yu5DE2-0Qyf26-9-69" value="&lt;pre style=&quot;font-family: &amp;#34;jetbrains mono&amp;#34; , monospace ; font-size: 17px&quot;&gt;plan.resolveOperatorsUpWithPruning()&lt;/pre&gt;" style="text;whiteSpace=wrap;html=1;fontSize=17;align=center;verticalAlign=middle;rounded=1;shadow=0;labelBackgroundColor=none;labelBorderColor=none;sketch=1;strokeColor=default;" parent="1" vertex="1">
          <mxGeometry x="1306" y="1317" width="370.5" height="53" as="geometry" />
        </mxCell>
        <mxCell id="6svz-Yu5DE2-0Qyf26-9-72" value="当前规则为ResolveTempViews" style="text;html=1;strokeColor=none;fillColor=none;align=center;verticalAlign=middle;whiteSpace=wrap;rounded=0;shadow=0;labelBackgroundColor=none;labelBorderColor=none;sketch=0;fontFamily=Helvetica;fontSize=17;fontColor=#3333FF;" parent="1" vertex="1">
          <mxGeometry x="827" y="1325" width="167" height="45" as="geometry" />
        </mxCell>
        <mxCell id="6svz-Yu5DE2-0Qyf26-9-74" value="循环调用获取子节点，把当前规则应用到子节点" style="text;html=1;strokeColor=none;fillColor=none;align=left;verticalAlign=middle;whiteSpace=wrap;rounded=0;shadow=0;labelBackgroundColor=none;labelBorderColor=none;sketch=0;fontFamily=Helvetica;fontSize=17;fontColor=#3333FF;" parent="1" vertex="1">
          <mxGeometry x="1317" y="1255" width="414" height="79" as="geometry" />
        </mxCell>
        <mxCell id="KYrOxUyAsJtOEbto99pf-4" value="" style="edgeStyle=orthogonalEdgeStyle;rounded=0;orthogonalLoop=1;jettySize=auto;html=1;fontColor=#3333FF;" parent="1" source="KYrOxUyAsJtOEbto99pf-1" target="KYrOxUyAsJtOEbto99pf-3" edge="1">
          <mxGeometry relative="1" as="geometry" />
        </mxCell>
        <mxCell id="KYrOxUyAsJtOEbto99pf-1" value="&lt;span style=&quot;&quot;&gt;ResolveTempViews.&lt;/span&gt;&lt;div style=&quot;font-size: 17px;&quot;&gt;lookupAndResolveTempView()&lt;/div&gt;" style="text;whiteSpace=wrap;html=1;fontSize=17;align=center;verticalAlign=middle;rounded=1;shadow=0;labelBackgroundColor=none;labelBorderColor=none;sketch=1;strokeColor=default;fontFamily=Verdana;" parent="1" vertex="1">
          <mxGeometry x="992" y="1444" width="275.75" height="55" as="geometry" />
        </mxCell>
        <mxCell id="KYrOxUyAsJtOEbto99pf-6" value="" style="edgeStyle=orthogonalEdgeStyle;rounded=0;orthogonalLoop=1;jettySize=auto;html=1;fontColor=#3333FF;" parent="1" source="KYrOxUyAsJtOEbto99pf-3" target="KYrOxUyAsJtOEbto99pf-7" edge="1">
          <mxGeometry relative="1" as="geometry">
            <mxPoint x="1319.5" y="1565" as="targetPoint" />
          </mxGeometry>
        </mxCell>
        <mxCell id="KYrOxUyAsJtOEbto99pf-13" value="" style="edgeStyle=orthogonalEdgeStyle;rounded=0;orthogonalLoop=1;jettySize=auto;html=1;fontFamily=Verdana;fontSize=15;fontColor=#C76300;" parent="1" source="KYrOxUyAsJtOEbto99pf-3" target="KYrOxUyAsJtOEbto99pf-12" edge="1">
          <mxGeometry relative="1" as="geometry" />
        </mxCell>
        <mxCell id="KYrOxUyAsJtOEbto99pf-3" value="&lt;div style=&quot;font-size: 17px;&quot;&gt;&lt;font face=&quot;Verdana&quot;&gt;ResolveTempViews.&lt;/font&gt;&lt;/div&gt;&lt;div style=&quot;font-size: 17px;&quot;&gt;&lt;font face=&quot;Verdana&quot;&gt;lookupTempView()&lt;/font&gt;&lt;/div&gt;" style="text;whiteSpace=wrap;html=1;fontSize=17;align=center;verticalAlign=middle;rounded=1;shadow=0;labelBackgroundColor=none;labelBorderColor=none;sketch=1;strokeColor=default;fontFamily=Helvetica;" parent="1" vertex="1">
          <mxGeometry x="994" y="1531" width="271.75" height="66" as="geometry" />
        </mxCell>
        <mxCell id="KYrOxUyAsJtOEbto99pf-7" value="&lt;div style=&quot;font-size: 15px;&quot;&gt;// 只有表名、或 库名.表名&amp;nbsp; 两种处理方式，此处返回解析后的视图表&lt;/div&gt;&lt;div style=&quot;font-size: 15px;&quot;&gt;case Seq(part1) =&amp;gt; &lt;font color=&quot;#cc6600&quot;&gt;v1SessionCatalog.lookupTempView&lt;/font&gt;&lt;font color=&quot;#c76300&quot;&gt;(part1)&lt;/font&gt;&lt;/div&gt;&lt;div style=&quot;font-size: 15px;&quot;&gt;case Seq(part1, part2) =&amp;gt; &lt;font color=&quot;#cc6600&quot;&gt;v1SessionCatalog.lookupGlobalTempView(part1, part2)&lt;/font&gt;&lt;/div&gt;" style="text;html=1;strokeColor=none;fillColor=none;align=left;verticalAlign=middle;whiteSpace=wrap;rounded=0;sketch=1;fontColor=#3333FF;fontSize=15;" parent="1" vertex="1">
          <mxGeometry x="1322" y="1520" width="594" height="88" as="geometry" />
        </mxCell>
        <mxCell id="KYrOxUyAsJtOEbto99pf-8" value="case判断，当为&lt;br&gt;UnresolvedRelation&lt;br&gt;时调用这个函数" style="text;html=1;strokeColor=none;fillColor=none;align=left;verticalAlign=middle;whiteSpace=wrap;rounded=0;shadow=0;labelBackgroundColor=none;labelBorderColor=none;sketch=0;fontFamily=Helvetica;fontSize=17;fontColor=#3333FF;" parent="1" vertex="1">
          <mxGeometry x="795" y="1437.75" width="156" height="67.5" as="geometry" />
        </mxCell>
        <mxCell id="KYrOxUyAsJtOEbto99pf-9" value="此处会递归应用该rule，直到满足case里的内容" style="text;html=1;strokeColor=none;fillColor=none;align=left;verticalAlign=middle;whiteSpace=wrap;rounded=0;shadow=0;labelBackgroundColor=none;labelBorderColor=none;sketch=0;fontFamily=Helvetica;fontSize=17;fontColor=#FF3333;" parent="1" vertex="1">
          <mxGeometry x="1687" y="1287" width="229" height="108" as="geometry" />
        </mxCell>
        <mxCell id="KYrOxUyAsJtOEbto99pf-12" value="&lt;div style=&quot;&quot;&gt;&lt;font face=&quot;Verdana&quot;&gt;.map(ResolveRelations.resolveViews)&lt;/font&gt;&lt;br&gt;&lt;/div&gt;" style="text;whiteSpace=wrap;html=1;fontSize=17;align=center;verticalAlign=middle;rounded=1;shadow=0;labelBackgroundColor=none;labelBorderColor=none;sketch=1;strokeColor=default;fontFamily=Helvetica;" parent="1" vertex="1">
          <mxGeometry x="963.69" y="1649" width="334.13" height="66" as="geometry" />
        </mxCell>
        <mxCell id="8OnXsl6RQj_-lLjxXLYx-3" value="" style="edgeStyle=orthogonalEdgeStyle;rounded=0;orthogonalLoop=1;jettySize=auto;html=1;" parent="1" source="8OnXsl6RQj_-lLjxXLYx-1" target="8OnXsl6RQj_-lLjxXLYx-2" edge="1">
          <mxGeometry relative="1" as="geometry" />
        </mxCell>
        <mxCell id="8OnXsl6RQj_-lLjxXLYx-1" value="&lt;pre style=&quot;font-family: &amp;quot;jetbrains mono&amp;quot; , monospace ; font-size: 17px&quot;&gt;ResolveReferences.apply()&lt;/pre&gt;" style="text;whiteSpace=wrap;html=1;fontSize=17;align=center;verticalAlign=middle;rounded=1;shadow=0;labelBackgroundColor=none;labelBorderColor=none;sketch=0;fillColor=#d5e8d4;strokeColor=#82b366;" parent="1" vertex="1">
          <mxGeometry x="1180" y="1891" width="273" height="62.5" as="geometry" />
        </mxCell>
        <mxCell id="8OnXsl6RQj_-lLjxXLYx-6" value="" style="edgeStyle=orthogonalEdgeStyle;rounded=0;orthogonalLoop=1;jettySize=auto;html=1;exitX=1;exitY=0.5;exitDx=0;exitDy=0;" parent="1" source="A4QgARqH3jD8Nl5-4ABR-1" target="8OnXsl6RQj_-lLjxXLYx-5" edge="1">
          <mxGeometry relative="1" as="geometry">
            <mxPoint x="1305.4705882352941" y="2180.25" as="sourcePoint" />
          </mxGeometry>
        </mxCell>
        <mxCell id="A4QgARqH3jD8Nl5-4ABR-2" value="" style="edgeStyle=orthogonalEdgeStyle;rounded=0;orthogonalLoop=1;jettySize=auto;html=1;" parent="1" source="8OnXsl6RQj_-lLjxXLYx-2" target="A4QgARqH3jD8Nl5-4ABR-1" edge="1">
          <mxGeometry relative="1" as="geometry" />
        </mxCell>
        <mxCell id="8OnXsl6RQj_-lLjxXLYx-2" value="&lt;pre style=&quot;font-family: &amp;quot;jetbrains mono&amp;quot; , monospace ; font-size: 17px&quot;&gt;ResolveReferences.apply()&lt;/pre&gt;" style="text;whiteSpace=wrap;html=1;fontSize=17;align=center;verticalAlign=middle;rounded=1;shadow=0;labelBackgroundColor=none;labelBorderColor=none;sketch=1;fillColor=none;strokeColor=default;" parent="1" vertex="1">
          <mxGeometry x="1180" y="2018.5" width="273" height="62.5" as="geometry" />
        </mxCell>
        <mxCell id="8OnXsl6RQj_-lLjxXLYx-4" value="case判断，当子节点未解析时" style="text;html=1;strokeColor=none;fillColor=none;align=left;verticalAlign=middle;whiteSpace=wrap;rounded=0;shadow=0;labelBackgroundColor=none;labelBorderColor=none;sketch=0;fontFamily=Helvetica;fontSize=17;fontColor=#3333FF;" parent="1" vertex="1">
          <mxGeometry x="1027" y="2018.5" width="156" height="67.5" as="geometry" />
        </mxCell>
        <mxCell id="8OnXsl6RQj_-lLjxXLYx-9" value="" style="edgeStyle=orthogonalEdgeStyle;rounded=0;orthogonalLoop=1;jettySize=auto;html=1;fontFamily=Verdana;" parent="1" source="8OnXsl6RQj_-lLjxXLYx-5" target="8OnXsl6RQj_-lLjxXLYx-8" edge="1">
          <mxGeometry relative="1" as="geometry" />
        </mxCell>
        <mxCell id="8OnXsl6RQj_-lLjxXLYx-5" value="&lt;div style=&quot;font-size: 17px;&quot;&gt;case q:LogicalPlan =&amp;gt; q.mapExpressions(&lt;/div&gt;&lt;div style=&quot;font-size: 17px;&quot;&gt;&lt;font color=&quot;#ff3333&quot;&gt;resolveExpressionByPlanChildren(_, q)&lt;/font&gt;)&lt;/div&gt;" style="text;whiteSpace=wrap;html=1;fontSize=17;align=center;verticalAlign=middle;rounded=1;shadow=0;labelBackgroundColor=none;labelBorderColor=none;sketch=1;fillColor=none;strokeColor=default;fontFamily=Verdana;" parent="1" vertex="1">
          <mxGeometry x="1618" y="2110.75" width="352.87" height="89" as="geometry" />
        </mxCell>
        <mxCell id="8OnXsl6RQj_-lLjxXLYx-7" value="function1里用case 匹配，先执行括号里的函数" style="text;html=1;strokeColor=none;fillColor=none;align=left;verticalAlign=middle;whiteSpace=wrap;rounded=0;shadow=0;labelBackgroundColor=none;labelBorderColor=none;sketch=0;fontFamily=Helvetica;fontSize=17;fontColor=#3333FF;" parent="1" vertex="1">
          <mxGeometry x="1980" y="2083" width="261" height="75.75" as="geometry" />
        </mxCell>
        <mxCell id="8OnXsl6RQj_-lLjxXLYx-12" value="" style="edgeStyle=orthogonalEdgeStyle;rounded=0;orthogonalLoop=1;jettySize=auto;html=1;fontFamily=Verdana;" parent="1" source="8OnXsl6RQj_-lLjxXLYx-8" target="8OnXsl6RQj_-lLjxXLYx-11" edge="1">
          <mxGeometry relative="1" as="geometry" />
        </mxCell>
        <mxCell id="8OnXsl6RQj_-lLjxXLYx-8" value="&lt;div style=&quot;font-size: 17px;&quot;&gt;&lt;span style=&quot;background-color: initial;&quot;&gt;resolveExpressionByPlanChildren{&lt;/span&gt;&lt;/div&gt;&lt;div style=&quot;font-size: 17px;&quot;&gt;&lt;span style=&quot;background-color: initial;&quot;&gt;resolveExpression()&lt;/span&gt;&lt;/div&gt;&lt;div style=&quot;font-size: 17px;&quot;&gt;&lt;span style=&quot;background-color: initial;&quot;&gt;}&lt;/span&gt;&lt;br&gt;&lt;/div&gt;" style="text;whiteSpace=wrap;html=1;fontSize=17;align=center;verticalAlign=middle;rounded=1;shadow=0;labelBackgroundColor=none;labelBorderColor=none;sketch=1;fillColor=none;strokeColor=default;fontFamily=Verdana;" parent="1" vertex="1">
          <mxGeometry x="1623.87" y="2254.75" width="343.13" height="73" as="geometry" />
        </mxCell>
        <mxCell id="8OnXsl6RQj_-lLjxXLYx-15" value="" style="edgeStyle=orthogonalEdgeStyle;rounded=0;orthogonalLoop=1;jettySize=auto;html=1;fontFamily=Verdana;" parent="1" source="8OnXsl6RQj_-lLjxXLYx-11" target="8OnXsl6RQj_-lLjxXLYx-14" edge="1">
          <mxGeometry relative="1" as="geometry" />
        </mxCell>
        <mxCell id="8OnXsl6RQj_-lLjxXLYx-11" value="&lt;div style=&quot;font-size: 17px;&quot;&gt;case UnresolvedAttribute()&lt;/div&gt;" style="text;whiteSpace=wrap;html=1;fontSize=17;align=center;verticalAlign=middle;rounded=1;shadow=0;labelBackgroundColor=none;labelBorderColor=none;sketch=1;fillColor=none;strokeColor=default;fontFamily=Verdana;" parent="1" vertex="1">
          <mxGeometry x="1622.87" y="2381.25" width="343.13" height="73" as="geometry" />
        </mxCell>
        <mxCell id="8OnXsl6RQj_-lLjxXLYx-13" value="会取到最终的字段" style="text;html=1;strokeColor=none;fillColor=none;align=left;verticalAlign=middle;whiteSpace=wrap;rounded=0;shadow=0;labelBackgroundColor=none;labelBorderColor=none;sketch=0;fontFamily=Helvetica;fontSize=17;fontColor=#3333FF;" parent="1" vertex="1">
          <mxGeometry x="1474" y="2407.75" width="156" height="56" as="geometry" />
        </mxCell>
        <mxCell id="8OnXsl6RQj_-lLjxXLYx-14" value="&lt;div style=&quot;font-size: 17px;&quot;&gt;mapExpressions()&lt;/div&gt;" style="text;whiteSpace=wrap;html=1;fontSize=17;align=center;verticalAlign=middle;rounded=1;shadow=0;labelBackgroundColor=none;labelBorderColor=none;sketch=1;fillColor=none;strokeColor=default;fontFamily=Verdana;" parent="1" vertex="1">
          <mxGeometry x="1622.87" y="2500.75" width="343.13" height="73" as="geometry" />
        </mxCell>
        <mxCell id="8OnXsl6RQj_-lLjxXLYx-16" value="内部执行完后，执行该函数&lt;br&gt;在这个函数里比较，如果新Expression和原来的不一样，则用新的替换原有的" style="text;html=1;strokeColor=none;fillColor=default;align=left;verticalAlign=middle;whiteSpace=wrap;rounded=0;shadow=0;labelBackgroundColor=none;labelBorderColor=none;sketch=0;fontFamily=Helvetica;fontSize=17;fontColor=#3333FF;" parent="1" vertex="1">
          <mxGeometry x="1980" y="2505.75" width="389" height="84" as="geometry" />
        </mxCell>
        <mxCell id="A4QgARqH3jD8Nl5-4ABR-1" value="&lt;pre style=&quot;font-family: &amp;quot;jetbrains mono&amp;quot; , monospace ; font-size: 17px&quot;&gt;plan.resolveOperatorsUpWithPruning()(function1)&lt;/pre&gt;" style="text;whiteSpace=wrap;html=1;fontSize=17;align=center;verticalAlign=middle;rounded=1;shadow=0;labelBackgroundColor=none;labelBorderColor=none;sketch=1;fillColor=none;strokeColor=default;" parent="1" vertex="1">
          <mxGeometry x="1074.5" y="2119" width="484" height="72" as="geometry" />
        </mxCell>
        <mxCell id="A4QgARqH3jD8Nl5-4ABR-3" value="从根节点遍历，循环给子节点应用function1" style="text;html=1;strokeColor=none;fillColor=none;align=left;verticalAlign=middle;whiteSpace=wrap;rounded=0;shadow=0;labelBackgroundColor=none;labelBorderColor=none;sketch=0;fontFamily=Helvetica;fontSize=17;fontColor=#3333FF;" parent="1" vertex="1">
          <mxGeometry x="882" y="2126.25" width="192.5" height="65.5" as="geometry" />
        </mxCell>
        <mxCell id="A4QgARqH3jD8Nl5-4ABR-4" value="" style="curved=1;endArrow=classic;html=1;rounded=0;fontColor=#FF3333;exitX=0.5;exitY=1;exitDx=0;exitDy=0;entryX=0;entryY=0.5;entryDx=0;entryDy=0;" parent="1" source="A4QgARqH3jD8Nl5-4ABR-1" target="8OnXsl6RQj_-lLjxXLYx-11" edge="1">
          <mxGeometry width="50" height="50" relative="1" as="geometry">
            <mxPoint x="1424" y="2331.75" as="sourcePoint" />
            <mxPoint x="1474" y="2281.75" as="targetPoint" />
            <Array as="points">
              <mxPoint x="1373" y="2414.75" />
            </Array>
          </mxGeometry>
        </mxCell>
        <mxCell id="A4QgARqH3jD8Nl5-4ABR-5" value="从根节点遍历，直到匹配到expression为 UnresolvedAttribute时" style="text;html=1;strokeColor=none;fillColor=default;align=left;verticalAlign=middle;whiteSpace=wrap;rounded=0;shadow=0;labelBackgroundColor=none;labelBorderColor=none;sketch=0;fontFamily=Helvetica;fontSize=17;fontColor=#3333FF;" parent="1" vertex="1">
          <mxGeometry x="1191" y="2281" width="294" height="67.5" as="geometry" />
        </mxCell>
        <mxCell id="A4QgARqH3jD8Nl5-4ABR-6" value="" style="curved=1;endArrow=classic;html=1;rounded=0;fontColor=#FF3333;exitX=1;exitY=0.5;exitDx=0;exitDy=0;entryX=1;entryY=0.5;entryDx=0;entryDy=0;" parent="1" source="8OnXsl6RQj_-lLjxXLYx-14" target="8OnXsl6RQj_-lLjxXLYx-5" edge="1">
          <mxGeometry width="50" height="50" relative="1" as="geometry">
            <mxPoint x="1279" y="2454.25" as="sourcePoint" />
            <mxPoint x="1585" y="2175.75" as="targetPoint" />
            <Array as="points">
              <mxPoint x="2131" y="2458.75" />
              <mxPoint x="2106" y="2246.75" />
            </Array>
          </mxGeometry>
        </mxCell>
        <mxCell id="jaOl8nSAAXzAtJk_g4ZR-1" style="edgeStyle=orthogonalEdgeStyle;rounded=0;orthogonalLoop=1;jettySize=auto;html=1;entryX=1;entryY=0.5;entryDx=0;entryDy=0;fontSize=16;fontColor=#000000;" edge="1" parent="1" source="jaOl8nSAAXzAtJk_g4ZR-2" target="jaOl8nSAAXzAtJk_g4ZR-13">
          <mxGeometry relative="1" as="geometry" />
        </mxCell>
        <mxCell id="jaOl8nSAAXzAtJk_g4ZR-2" value="&lt;font face=&quot;Verdana&quot;&gt;Optimizer&lt;/font&gt;" style="rounded=1;whiteSpace=wrap;html=1;sketch=1;shadow=0;glass=0;fillColor=#f5f5f5;strokeColor=#666666;overflow=visible;noLabel=0;direction=north;connectable=1;allowArrows=1;portConstraintRotation=0;snapToPoint=0;perimeter=rectanglePerimeter;fixDash=0;autosize=0;container=0;dropTarget=0;collapsible=0;recursiveResize=1;expand=1;treeFolding=0;disableMultiStroke=0;disableMultiStrokeFill=0;dashOffset=1;fillStyle=auto;fontSize=16;fontColor=#333333;verticalAlign=top;gradientDirection=south;" vertex="1" parent="1">
          <mxGeometry x="202" y="3584" width="558" height="346" as="geometry" />
        </mxCell>
        <mxCell id="jaOl8nSAAXzAtJk_g4ZR-3" value="&lt;pre style=&quot;color: rgb(169, 183, 198); font-family: &amp;quot;jetbrains mono&amp;quot;, monospace; font-size: 14px;&quot;&gt;&lt;span style=&quot;color: rgb(106, 135, 89); font-size: 14px;&quot;&gt; 1.Finish Analysis&lt;/span&gt;&lt;/pre&gt;" style="shape=note;size=20;whiteSpace=wrap;html=1;rounded=0;shadow=0;glass=0;labelBackgroundColor=none;sketch=1;disableMultiStroke=0;disableMultiStrokeFill=0;fillStyle=auto;fontFamily=Helvetica;fontSize=14;fontColor=default;strokeColor=default;fillColor=none;gradientColor=#ffffff;gradientDirection=south;align=left;" vertex="1" parent="1">
          <mxGeometry x="233" y="3619.5" width="190" height="36.5" as="geometry" />
        </mxCell>
        <mxCell id="jaOl8nSAAXzAtJk_g4ZR-5" value="&lt;pre style=&quot;color: rgb(169, 183, 198); font-family: &amp;quot;jetbrains mono&amp;quot;, monospace; font-size: 14px;&quot;&gt;&lt;span style=&quot;color: rgb(106, 135, 89); font-size: 14px;&quot;&gt; 2.Union&lt;/span&gt;&lt;/pre&gt;" style="shape=note;size=20;whiteSpace=wrap;html=1;rounded=0;shadow=0;glass=0;labelBackgroundColor=none;sketch=1;disableMultiStroke=0;disableMultiStrokeFill=0;fillStyle=auto;fontFamily=Helvetica;fontSize=14;fontColor=default;strokeColor=default;fillColor=none;gradientColor=#ffffff;gradientDirection=south;align=left;" vertex="1" parent="1">
          <mxGeometry x="232" y="3673" width="191" height="35.5" as="geometry" />
        </mxCell>
        <mxCell id="jaOl8nSAAXzAtJk_g4ZR-6" value="&lt;pre style=&quot;font-family: &amp;quot;jetbrains mono&amp;quot;, monospace; font-size: 14px;&quot;&gt;&lt;span style=&quot;color: rgb(106, 135, 89); font-size: 14px;&quot;&gt; 3.Subquery&lt;/span&gt;&lt;/pre&gt;" style="shape=note;size=20;whiteSpace=wrap;html=1;rounded=0;shadow=0;glass=0;labelBackgroundColor=none;sketch=1;disableMultiStroke=0;disableMultiStrokeFill=0;fillStyle=auto;fontFamily=Helvetica;fontSize=14;fontColor=default;strokeColor=default;fillColor=none;gradientColor=#ffffff;gradientDirection=south;align=left;" vertex="1" parent="1">
          <mxGeometry x="230.18" y="3725" width="197.82" height="36" as="geometry" />
        </mxCell>
        <mxCell id="jaOl8nSAAXzAtJk_g4ZR-10" value="&lt;pre&gt;&lt;font face=&quot;jetbrains mono, monospace&quot;&gt;&lt;span style=&quot;font-size: 13.0667px&quot;&gt;batches: &lt;br&gt;Seq[Batch]&lt;/span&gt;&lt;span style=&quot;font-size: 9.8pt&quot;&gt;&lt;br&gt;&lt;/span&gt;&lt;/font&gt;&lt;/pre&gt;" style="rounded=1;whiteSpace=wrap;html=1;shadow=0;glass=0;sketch=1;disableMultiStroke=0;disableMultiStrokeFill=0;fillStyle=auto;fontFamily=Helvetica;fontSize=14;fontColor=#FF3333;strokeColor=none;fillColor=none;labelBackgroundColor=none;labelBorderColor=none;fontStyle=1" vertex="1" parent="1">
          <mxGeometry x="394.63" y="3663.5" width="150.75" height="40" as="geometry" />
        </mxCell>
        <mxCell id="jaOl8nSAAXzAtJk_g4ZR-12" value="&lt;pre style=&quot;font-family: &amp;quot;jetbrains mono&amp;quot; , monospace ; font-size: 14px&quot;&gt;&lt;span style=&quot;color: rgb(106 , 135 , 89) ; font-size: 14px&quot;&gt; 4.Replace Operators&lt;/span&gt;&lt;/pre&gt;" style="shape=note;size=20;whiteSpace=wrap;html=1;rounded=0;shadow=0;glass=0;labelBackgroundColor=none;sketch=1;disableMultiStroke=0;disableMultiStrokeFill=0;fillStyle=auto;fontFamily=Helvetica;fontSize=14;fontColor=default;strokeColor=default;fillColor=none;gradientColor=#ffffff;gradientDirection=south;align=left;" vertex="1" parent="1">
          <mxGeometry x="230.18" y="3772" width="197.82" height="36" as="geometry" />
        </mxCell>
        <mxCell id="jaOl8nSAAXzAtJk_g4ZR-13" value="&lt;pre style=&quot;font-family: &amp;quot;jetbrains mono&amp;quot;, monospace; font-size: 16px;&quot;&gt;RuleExecutor&lt;/pre&gt;" style="rounded=1;whiteSpace=wrap;html=1;labelBackgroundColor=none;fontSize=16;sketch=1;shadow=0;fillColor=#eeeeee;strokeColor=#36393d;" vertex="1" parent="1">
          <mxGeometry x="28" y="3730.5" width="137" height="53" as="geometry" />
        </mxCell>
        <mxCell id="jaOl8nSAAXzAtJk_g4ZR-14" value="&lt;pre style=&quot;font-family: &amp;quot;jetbrains mono&amp;quot; , monospace ; font-size: 14px&quot;&gt;&lt;span style=&quot;color: rgb(106 , 135 , 89) ; font-size: 14px&quot;&gt; 5.Aggregate&lt;/span&gt;&lt;/pre&gt;" style="shape=note;size=20;whiteSpace=wrap;html=1;rounded=0;shadow=0;glass=0;labelBackgroundColor=none;sketch=1;disableMultiStroke=0;disableMultiStrokeFill=0;fillStyle=auto;fontFamily=Helvetica;fontSize=14;fontColor=default;strokeColor=default;fillColor=none;gradientColor=#ffffff;gradientDirection=south;align=left;" vertex="1" parent="1">
          <mxGeometry x="228.58999999999997" y="3824" width="202.41" height="37" as="geometry" />
        </mxCell>
        <mxCell id="jaOl8nSAAXzAtJk_g4ZR-15" value="&lt;pre style=&quot;font-family: &amp;quot;jetbrains mono&amp;quot; , monospace ; font-size: 14px&quot;&gt;&lt;font color=&quot;#6a8759&quot;&gt; 6.Operator Optimizations&lt;/font&gt;&lt;/pre&gt;" style="shape=note;size=20;whiteSpace=wrap;html=1;rounded=0;shadow=0;glass=0;labelBackgroundColor=none;sketch=1;disableMultiStroke=0;disableMultiStrokeFill=0;fillStyle=auto;fontFamily=Helvetica;fontSize=14;fontColor=default;strokeColor=default;fillColor=none;gradientColor=#ffffff;gradientDirection=south;align=left;" vertex="1" parent="1">
          <mxGeometry x="229.08999999999997" y="3876" width="233.91" height="41" as="geometry" />
        </mxCell>
        <mxCell id="jaOl8nSAAXzAtJk_g4ZR-16" value="&lt;pre style=&quot;color: rgb(169, 183, 198); font-family: &amp;quot;jetbrains mono&amp;quot;, monospace; font-size: 14px;&quot;&gt;&lt;span style=&quot;color: rgb(106, 135, 89); font-size: 14px;&quot;&gt; 7.Check Cartesian Products&lt;/span&gt;&lt;/pre&gt;" style="shape=note;size=12;whiteSpace=wrap;html=1;rounded=0;shadow=0;glass=0;labelBackgroundColor=none;sketch=1;disableMultiStroke=0;disableMultiStrokeFill=0;fillStyle=auto;fontFamily=Helvetica;fontSize=14;fontColor=default;strokeColor=default;fillColor=none;gradientColor=#ffffff;gradientDirection=south;align=left;" vertex="1" parent="1">
          <mxGeometry x="517" y="3617" width="225" height="37" as="geometry" />
        </mxCell>
        <mxCell id="jaOl8nSAAXzAtJk_g4ZR-17" value="&lt;pre style=&quot;font-family: &amp;quot;jetbrains mono&amp;quot;, monospace; font-size: 14px;&quot;&gt;&lt;font color=&quot;#6a8759&quot;&gt; 8.Decimal Optimizations&lt;/font&gt;&lt;/pre&gt;" style="shape=note;size=13;whiteSpace=wrap;html=1;rounded=0;shadow=0;glass=0;labelBackgroundColor=none;sketch=1;disableMultiStroke=0;disableMultiStrokeFill=0;fillStyle=auto;fontFamily=Helvetica;fontSize=14;fontColor=default;strokeColor=default;fillColor=none;gradientColor=#ffffff;gradientDirection=south;align=left;" vertex="1" parent="1">
          <mxGeometry x="514.5" y="3667" width="224.5" height="38" as="geometry" />
        </mxCell>
        <mxCell id="jaOl8nSAAXzAtJk_g4ZR-18" value="&lt;pre style=&quot;font-family: &amp;quot;jetbrains mono&amp;quot;, monospace; font-size: 14px;&quot;&gt;&lt;font color=&quot;#6a8759&quot;&gt; 9.Typed Filter Optimization&lt;/font&gt;&lt;/pre&gt;" style="shape=note;size=11;whiteSpace=wrap;html=1;rounded=0;shadow=0;glass=0;labelBackgroundColor=none;sketch=1;disableMultiStroke=0;disableMultiStrokeFill=0;fillStyle=auto;fontFamily=Helvetica;fontSize=14;fontColor=default;strokeColor=default;fillColor=none;gradientColor=#ffffff;gradientDirection=south;align=left;" vertex="1" parent="1">
          <mxGeometry x="514" y="3720" width="238" height="38" as="geometry" />
        </mxCell>
        <mxCell id="jaOl8nSAAXzAtJk_g4ZR-19" value="&lt;pre style=&quot;font-family: &amp;quot;jetbrains mono&amp;quot;, monospace; font-size: 14px;&quot;&gt;&lt;font color=&quot;#6a8759&quot;&gt; 10.LocalRelation&lt;/font&gt;&lt;/pre&gt;" style="shape=note;size=20;whiteSpace=wrap;html=1;rounded=0;shadow=0;glass=0;labelBackgroundColor=none;sketch=1;disableMultiStroke=0;disableMultiStrokeFill=0;fillStyle=auto;fontFamily=Helvetica;fontSize=14;fontColor=default;strokeColor=default;fillColor=none;gradientColor=#ffffff;gradientDirection=south;align=left;" vertex="1" parent="1">
          <mxGeometry x="514" y="3772" width="224" height="39.5" as="geometry" />
        </mxCell>
        <mxCell id="jaOl8nSAAXzAtJk_g4ZR-20" value="&lt;pre style=&quot;font-family: &amp;quot;jetbrains mono&amp;quot;, monospace; font-size: 14px;&quot;&gt;&lt;font color=&quot;#6a8759&quot;&gt; 11.OptimizeCodegen&lt;/font&gt;&lt;/pre&gt;" style="shape=note;size=20;whiteSpace=wrap;html=1;rounded=0;shadow=0;glass=0;labelBackgroundColor=none;sketch=1;disableMultiStroke=0;disableMultiStrokeFill=0;fillStyle=auto;fontFamily=Helvetica;fontSize=14;fontColor=default;strokeColor=default;fillColor=none;gradientColor=#ffffff;gradientDirection=south;align=left;" vertex="1" parent="1">
          <mxGeometry x="514" y="3824" width="220" height="35.5" as="geometry" />
        </mxCell>
        <mxCell id="jaOl8nSAAXzAtJk_g4ZR-21" value="&lt;pre style=&quot;font-family: &amp;quot;jetbrains mono&amp;quot;, monospace; font-size: 14px;&quot;&gt;&lt;font color=&quot;#6a8759&quot;&gt; 12.RewriteSubquery&lt;/font&gt;&lt;/pre&gt;" style="shape=note;size=20;whiteSpace=wrap;html=1;rounded=0;shadow=0;glass=0;labelBackgroundColor=none;sketch=1;disableMultiStroke=0;disableMultiStrokeFill=0;fillStyle=auto;fontFamily=Helvetica;fontSize=14;fontColor=default;strokeColor=default;fillColor=none;gradientColor=#ffffff;gradientDirection=south;align=left;" vertex="1" parent="1">
          <mxGeometry x="514" y="3876" width="216" height="36.75" as="geometry" />
        </mxCell>
        <mxCell id="jaOl8nSAAXzAtJk_g4ZR-29" value="" style="edgeStyle=orthogonalEdgeStyle;rounded=0;orthogonalLoop=1;jettySize=auto;html=1;fontFamily=Verdana;entryX=0;entryY=0.5;entryDx=0;entryDy=0;" edge="1" parent="1" source="jaOl8nSAAXzAtJk_g4ZR-22" target="jaOl8nSAAXzAtJk_g4ZR-2">
          <mxGeometry relative="1" as="geometry" />
        </mxCell>
        <mxCell id="jaOl8nSAAXzAtJk_g4ZR-22" value="&lt;font face=&quot;Verdana&quot;&gt;SparkOptimizer&lt;/font&gt;" style="rounded=1;whiteSpace=wrap;html=1;sketch=1;shadow=0;glass=0;fillColor=#f5f5f5;strokeColor=#666666;overflow=visible;noLabel=0;direction=north;connectable=1;allowArrows=1;portConstraintRotation=0;snapToPoint=0;perimeter=rectanglePerimeter;fixDash=0;autosize=0;container=0;dropTarget=0;collapsible=0;recursiveResize=1;expand=1;treeFolding=0;disableMultiStroke=0;disableMultiStrokeFill=0;dashOffset=1;fillStyle=auto;fontSize=16;fontColor=#333333;verticalAlign=top;gradientDirection=south;" vertex="1" parent="1">
          <mxGeometry x="231" y="3972" width="499" height="255" as="geometry" />
        </mxCell>
        <mxCell id="jaOl8nSAAXzAtJk_g4ZR-23" value="&lt;pre&gt;&lt;font face=&quot;jetbrains mono, monospace&quot;&gt;&lt;span style=&quot;font-size: 9.8pt&quot;&gt;super.batches&lt;/span&gt;&lt;/font&gt;&lt;/pre&gt;" style="rounded=1;whiteSpace=wrap;html=1;shadow=0;glass=0;sketch=1;disableMultiStroke=0;disableMultiStrokeFill=0;fillStyle=auto;fontFamily=Helvetica;fontSize=14;fontColor=#FF3333;strokeColor=none;fillColor=none;labelBackgroundColor=none;labelBorderColor=none;fontStyle=1" vertex="1" parent="1">
          <mxGeometry x="236.31" y="4073" width="114.38" height="40" as="geometry" />
        </mxCell>
        <mxCell id="jaOl8nSAAXzAtJk_g4ZR-24" value="&lt;pre style=&quot;font-family: &amp;quot;jetbrains mono&amp;quot;, monospace; font-size: 14px;&quot;&gt;&lt;font color=&quot;#6a8759&quot;&gt; 13.Optimize Metadata Only Query&lt;/font&gt;&lt;/pre&gt;" style="shape=note;size=20;whiteSpace=wrap;html=1;rounded=0;shadow=0;glass=0;labelBackgroundColor=none;sketch=1;disableMultiStroke=0;disableMultiStrokeFill=0;fillStyle=auto;fontFamily=Helvetica;fontSize=14;fontColor=default;strokeColor=default;fillColor=none;gradientColor=#ffffff;gradientDirection=south;align=left;" vertex="1" parent="1">
          <mxGeometry x="369" y="4013" width="337.25" height="39" as="geometry" />
        </mxCell>
        <mxCell id="jaOl8nSAAXzAtJk_g4ZR-26" value="&lt;pre style=&quot;font-family: &amp;quot;jetbrains mono&amp;quot;, monospace; font-size: 14px;&quot;&gt;&lt;font color=&quot;#6a8759&quot;&gt; 14.Extract Python UDF from Aggregate&lt;/font&gt;&lt;/pre&gt;" style="shape=note;size=20;whiteSpace=wrap;html=1;rounded=0;shadow=0;glass=0;labelBackgroundColor=none;sketch=1;disableMultiStroke=0;disableMultiStrokeFill=0;fillStyle=auto;fontFamily=Helvetica;fontSize=14;fontColor=default;strokeColor=default;fillColor=none;gradientColor=#ffffff;gradientDirection=south;align=left;" vertex="1" parent="1">
          <mxGeometry x="368.25" y="4065" width="342" height="42" as="geometry" />
        </mxCell>
        <mxCell id="jaOl8nSAAXzAtJk_g4ZR-27" value="&lt;pre style=&quot;font-family: &amp;quot;jetbrains mono&amp;quot;, monospace; font-size: 14px;&quot;&gt;&lt;font color=&quot;#6a8759&quot;&gt; 15.Prune File Source Table Partitions&lt;/font&gt;&lt;/pre&gt;" style="shape=note;size=20;whiteSpace=wrap;html=1;rounded=0;shadow=0;glass=0;labelBackgroundColor=none;sketch=1;disableMultiStroke=0;disableMultiStrokeFill=0;fillStyle=auto;fontFamily=Helvetica;fontSize=14;fontColor=default;strokeColor=default;fillColor=none;gradientColor=#ffffff;gradientDirection=south;align=left;" vertex="1" parent="1">
          <mxGeometry x="368.25" y="4117" width="342" height="38" as="geometry" />
        </mxCell>
        <mxCell id="jaOl8nSAAXzAtJk_g4ZR-28" value="&lt;pre style=&quot;font-family: &amp;quot;jetbrains mono&amp;quot;, monospace; font-size: 14px;&quot;&gt;&lt;font color=&quot;#6a8759&quot;&gt; 16.User Provided Optimizers&lt;/font&gt;&lt;/pre&gt;" style="shape=note;size=20;whiteSpace=wrap;html=1;rounded=0;shadow=0;glass=0;labelBackgroundColor=none;sketch=1;disableMultiStroke=0;disableMultiStrokeFill=0;fillStyle=auto;fontFamily=Helvetica;fontSize=14;fontColor=default;strokeColor=default;fillColor=none;gradientColor=#ffffff;gradientDirection=south;align=left;" vertex="1" parent="1">
          <mxGeometry x="369" y="4169" width="343" height="40" as="geometry" />
        </mxCell>
      </root>
    </mxGraphModel>
  </diagram>
</mxfile>
